<?xml version="1.0" encoding="UTF-8" standalone="no"?>
<!-- Created with Inkscape (http://www.inkscape.org/) -->

<svg
   xmlns:dc="http://purl.org/dc/elements/1.1/"
   xmlns:cc="http://creativecommons.org/ns#"
   xmlns:rdf="http://www.w3.org/1999/02/22-rdf-syntax-ns#"
   xmlns:svg="http://www.w3.org/2000/svg"
   xmlns="http://www.w3.org/2000/svg"
   xmlns:sodipodi="http://sodipodi.sourceforge.net/DTD/sodipodi-0.dtd"
   xmlns:inkscape="http://www.inkscape.org/namespaces/inkscape"
   width="210mm"
   height="297mm"
   viewBox="0 0 210 297"
   version="1.1"
   id="svg8"
   inkscape:version="0.92.3 (2405546, 2018-03-11)"
   sodipodi:docname="Bgeta.svg">
  <defs
     id="defs2" />
  <sodipodi:namedview
     id="base"
     pagecolor="#ffffff"
     bordercolor="#666666"
     borderopacity="1.0"
     inkscape:pageopacity="0.0"
     inkscape:pageshadow="2"
     inkscape:zoom="0.64"
     inkscape:cx="156.162"
     inkscape:cy="603.45556"
     inkscape:document-units="mm"
     inkscape:current-layer="layer6"
     showgrid="false"
     inkscape:window-width="1920"
     inkscape:window-height="1017"
     inkscape:window-x="-8"
     inkscape:window-y="-8"
     inkscape:window-maximized="1" />
  <metadata
     id="metadata5">
    <rdf:RDF>
      <cc:Work
         rdf:about="">
        <dc:format>image/svg+xml</dc:format>
        <dc:type
           rdf:resource="http://purl.org/dc/dcmitype/StillImage" />
        <dc:title></dc:title>
      </cc:Work>
    </rdf:RDF>
  </metadata>
  <g
     inkscape:groupmode="layer"
     id="layer2"
     inkscape:label="Zorin OS"
     style="display:inline">
    <path
       style="fill:#000000;stroke:#000000;stroke-width:0.26458332px;stroke-linecap:butt;stroke-linejoin:miter;stroke-opacity:1"
       d="m 41.82768,158.28711 -2.472243,-7.01582 0.200453,-0.26727 h 1.336347 l 0.200451,-0.20045 v -0.33409 l -0.400902,-0.46772 -1.202713,-0.26727 -1.737252,-0.13363 c 0,0 -1.867565,-0.16446 -2.338609,-0.53454 -0.471044,-0.37008 -0.357182,-0.60259 -0.534539,-1.06908 -0.177357,-0.46649 -0.375765,-1.28925 -0.467721,-1.73725 -0.09196,-0.448 -0.119209,-0.58862 -0.133635,-0.93545 -0.01443,-0.34683 0.02416,-0.71215 0.06682,-1.13589 0.04266,-0.42374 0.07062,-0.98753 0.200452,-1.40317 0.129836,-0.41564 0.283079,-0.83437 0.53454,-1.06908 0.251461,-0.23471 0.435123,-0.22406 0.801808,-0.33408 0.366685,-0.11002 1.374785,0.0647 1.403165,-0.26727 0.02838,-0.332 -0.534539,-0.20045 -0.534539,-0.20045 0,0 -0.07005,0.0636 -0.334087,-0.13364 -0.264033,-0.19721 -1.002261,-1.26953 -1.002261,-1.26953 l -2.204973,-0.0668 -3.006782,-4.00904 -1.202713,0.0668 v -0.40091 l 0.935443,-0.0668 -1.135895,-1.46999 -1.336348,-0.0668 0.06682,-0.46773 1.469983,0.13364 0.534539,-0.33409 0.601356,-0.20045 h -0.935443 l 0.534533,-0.26729 h -0.668174 v -0.33409 l 1.202713,0.20046 0.668174,-0.13364 5.879929,-0.20045 5.278574,2.07134 -2.80633,-6.94901 h -1.870887"
       id="path3725"
       inkscape:connector-curvature="0"
       sodipodi:nodetypes="ccccccccccccccccczczcccccccccccccccccccccc" />
    <path
       style="fill:#000000;stroke:#000000;stroke-width:0.26458332px;stroke-linecap:butt;stroke-linejoin:miter;stroke-opacity:1"
       d="m 39.288622,127.01658 -1.33635,-3.14042 -0.868624,-0.0668 0.133633,-0.0668 -0.06682,0.0668"
       id="path3727"
       inkscape:connector-curvature="0"
       sodipodi:nodetypes="ccccc" />
    <path
       style="fill:#000000;stroke:#000000;stroke-width:0.26458332px;stroke-linecap:butt;stroke-linejoin:miter;stroke-opacity:1"
       d="m 37.952272,123.87616 -1.00226,-2.33861 -1.403165,-0.0668 1.336347,0.0668 -0.267269,-0.60135 -0.53454,-0.20046 -0.133633,-1.06907 0.534537,-0.46773 0.467723,0.26728 3.80859,-0.20046 -0.400905,-0.20045 0.734991,-0.0668 0.267272,0.26727 h 0.46772 l 0.734991,-0.53454 h 0.467722 l 0.200451,0.20046 4.14268,0.0668 4.276312,3.54132 1.937705,-0.20045 0.133633,0.53454 -1.403165,0.20045 11.158503,9.48807 -1.603618,-3.54132 -0.868625,-0.33409 0.200451,-1.20271 -1.536798,-3.67496 2.739512,-1.00226 -4.877668,-0.20045 0.06682,-0.46772 1.737254,-0.0668 -1.202714,-2.00452 h -1.00226 1.069078 l -1.002263,-1.80407 h -2.00452 V 116.994 l -0.534538,-1.00226 -0.668176,-0.20045 0.334089,-0.46772 0.06681,-0.40091 0.601359,-0.46772 -0.133636,-1.67043 0.53454,-0.46772 0.267269,0.20045 h 3.140416 l 2.004521,2.13815 15.768902,0.0668 0.06682,-1.87089 c 0,0 1.393605,1.68002 2.138157,2.00452 0.744552,0.3245 1.542846,-0.008 1.937705,0.13364 0.394859,0.1417 0.467722,0.33409 0.467722,0.33409 0,0 0.182266,0.28091 0.06681,0.46772 -0.115456,0.18681 -0.444206,0.20003 -0.801806,0.26727 -0.3576,0.0672 -0.857265,-0.12301 -1.33635,0.0668 -0.479085,0.18981 -1.007239,0.81757 -1.336347,1.13589 -0.329108,0.31832 -0.668173,0.73499 -0.668173,0.73499 0,0 -0.06682,-0.53454 -0.267269,-0.80181 -0.200454,-0.26727 -9.421251,-0.20045 -9.421251,-0.20045 l 32.005526,16.43708 1.069079,-0.13364 0.60136,0.26727 6.48128,0.33409 c 0,0 7.47743,-0.78847 9.48807,-1.26953 2.01064,-0.48106 1.4948,-0.58746 2.6727,-0.93544 1.1779,-0.34798 2.93995,-0.735 4.40994,-1.06908 1.46999,-0.33408 2.62655,-0.51019 4.00905,-0.66818 1.3825,-0.15799 2.97972,-0.30129 4.27631,-0.26727 1.29659,0.034 2.0334,0.0752 3.4745,0.40091 1.4411,0.32567 3.63276,1.11935 5.07812,1.73725 1.44536,0.6179 2.64761,1.53341 3.60814,1.87089 0.96053,0.33748 1.38045,0.39898 2.00452,0.4009 3.13265,0.35677 2.35067,0.25898 4.47743,0.48762 5.65464,0.92703 0.5557,0.14063 1.93704,0.31419 1.38134,0.17356 4.13989,0.96016 6.28084,1.60362 2.14095,0.64346 5.21394,1.79781 6.5481,2.27179 1.33416,0.47398 0.36205,0.30995 1.46998,0.53454 1.10793,0.22459 5.21176,0.26727 5.21176,0.26727 0,0 -4.31959,0.14022 -5.87993,0.4009 -1.56034,0.26068 -1.58574,0.48956 -3.47451,0.93544 -1.88877,0.44588 -4.67703,1.12789 -7.88445,1.60362 -3.20742,0.47573 -8.03993,0.78326 -11.35895,1.06908 -3.31902,0.28582 -6.41298,0.55122 -8.55263,0.66817 -2.13965,0.11695 6.41737,0.002 -4.51017,0.0401 l 0.86863,0.90203 -1.54348,1.40984 c -1.30962,1.55016 -0.92877,1.82412 -0.92877,1.82412 l -21.28133,1.57021 -1.29311,1.5719 c 0,0 0.48101,0.0475 0.66146,0.18899 0.19983,0.15669 0.36038,0.40812 0.37797,0.66145 0.0118,0.16922 -0.0741,0.34766 -0.18899,0.47248 -0.90611,0.98476 -3.59077,1.79538 -3.59077,1.79538 l -5.291669,5.85863 c 0,0 1.670229,0.5363 2.267859,1.13393 0.14941,0.14941 0.37474,0.3764 0.28349,0.56698 -0.32016,0.66868 -1.431993,0.47418 -2.173368,0.47247 -0.290397,-6.7e-4 -0.850446,-0.18899 -0.850446,-0.18899 0,0 -0.851647,0.56659 -1.322917,0.75595 -0.241011,0.0968 -0.755952,0.18899 -0.755952,0.18899 l -3.02381,3.30729 9.921873,0.47247 v -1.22842 c 0,0 1.1643,1.79004 1.79539,2.07887 0.63109,0.28883 0.95102,-0.0957 1.41741,0 0.46639,0.0957 1.35845,-0.1004 1.32292,0.56696 -0.0355,0.66736 -1.76187,0.32388 -2.45685,0.75596 -0.69498,0.43208 -1.6064,1.70089 -1.6064,1.70089 l -0.28348,-1.70089 -15.686012,-0.18899 -1.889881,2.17336 -3.874256,0.0945 -0.188988,-2.07886 h -0.94494 l 0.566964,-0.85045 -0.661458,-0.85045 0.09449,-0.94494 h 1.228422 l -0.566964,-0.94494 -1.321017,0.18994 1.132029,-0.28443 -0.850446,-1.41741 -1.13203,0.28348 1.13203,-0.0945 -0.377977,-1.32292 c 0,0 -0.316801,0.13403 -0.47247,0.0945 -0.23844,-0.0605 -0.33565,-0.38872 -0.566964,-0.47247 -0.207317,-0.0751 -0.455806,0.0795 -0.661458,0 -0.436749,-0.16885 -1.039435,-0.94494 -1.039435,-0.94494 l 1.133929,-0.75595 -3.307292,-5.66964 -3.02381,-0.47247 -1.511904,2.36235 -9.260417,-1.51191 0.09449,-4.25223 -0.47247,-0.0945 -8.220982,11.33928 -6.047619,0.56697 -1.606399,0.0945 0.850446,-0.37798 -2.740327,-1.13392 -1.417411,-0.0945 -0.09449,-0.37797 h 1.417411 l -1.072618,-3.20843 v 0 0"
       id="path3731"
       inkscape:connector-curvature="0"
       sodipodi:nodetypes="ccccccccccccccccccccccccccccccccccccccccccccccccczzczzzzccccccczzzzzzzzcczzzzczzzzzcczcccsssccssscscccczzzzccccccccccccccccccsssccccccccccccccccccc" />
    <path
       style="fill:#000000;stroke:#000000;stroke-width:0.26458332px;stroke-linecap:butt;stroke-linejoin:miter;stroke-opacity:1"
       d="m 41.827674,158.28712 v 0"
       id="path3733"
       inkscape:connector-curvature="0"
       sodipodi:nodetypes="cc" />
    <path
       style="fill:#000000;stroke:#000000;stroke-width:0.26458332px;stroke-linecap:butt;stroke-linejoin:miter;stroke-opacity:1"
       d="M 41.827674,158.28712 39.6875,158.66071 Z"
       id="path3735"
       inkscape:connector-curvature="0"
       sodipodi:nodetypes="ccc" />
    <path
       style="fill:#ffffff;stroke:#000000;stroke-width:0.26458332px;stroke-linecap:butt;stroke-linejoin:miter;stroke-opacity:1"
       d="m 117.06405,132.62923 c 0,0 5.37879,-1.95107 7.08264,-2.00452 1.70385,-0.0534 1.00226,1.46999 1.00226,1.46999 -0.3453,0.23284 -0.66817,0.26727 -0.66817,0.26727 z"
       id="path3737"
       inkscape:connector-curvature="0"
       sodipodi:nodetypes="czscc" />
    <path
       style="fill:#ffffff;stroke:#000000;stroke-width:0.26458332px;stroke-linecap:butt;stroke-linejoin:miter;stroke-opacity:1"
       d="m 124.14669,130.62471 v 0 c 0,0 1.14506,-0.29904 1.70385,-0.0534 0.55879,0.24559 0.83522,1.59026 0.83522,1.59026 l 10.89123,0.60135 0.66817,-0.46772 3.87541,0.73499 c 0,0 -0.15182,-0.56946 -1.1359,-1.20272 -0.98408,-0.63326 -3.63702,-1.41158 -5.07812,-1.73725 -1.4411,-0.32567 -2.17791,-0.36689 -3.4745,-0.40091 -1.29659,-0.034 -2.89381,0.10928 -4.27631,0.26727 -1.3825,0.15799 -4.00905,0.66818 -4.00905,0.66818 z"
       id="path3739"
       inkscape:connector-curvature="0"
       sodipodi:nodetypes="cczcccczzzzcc" />
    <path
       style="fill:#000000;stroke:#000000;stroke-width:0.26458332px;stroke-linecap:butt;stroke-linejoin:miter;stroke-opacity:1"
       d="m 42.094951,154.81261 c 0,0.26727 -0.267271,3.4745 -0.267271,3.4745 l -1.670434,-5.0113 0.734991,-2.27179 -0.200451,-1.00226 -2.873147,-3.0736 -0.801809,-12.62849 1.202711,-1.9377 2.939965,-0.73499 3.741775,17.10525 z"
       id="path3741"
       inkscape:connector-curvature="0"
       sodipodi:nodetypes="ccccccccccc" />
    <path
       inkscape:connector-curvature="0"
       id="path3743"
       d="m 42.094951,154.81261 c 0,0.26727 -0.267271,3.4745 -0.267271,3.4745 l -1.670434,-5.0113 0.734991,-2.27179 -0.200451,-1.00226 -2.873147,-3.0736 -0.801809,-12.62849 1.202711,-1.9377 2.939965,-0.73499 3.741775,17.10525 z"
       style="fill:#000000;stroke:#000000;stroke-width:0.26458332px;stroke-linecap:butt;stroke-linejoin:miter;stroke-opacity:1"
       sodipodi:nodetypes="ccccccccccc" />
  </g>
  <g
     inkscape:groupmode="layer"
     id="layer4"
     inkscape:label="Ubuntu"
     style="display:inline">
    <path
       style="fill:#000000;stroke:#000000;stroke-width:0.26458332px;stroke-linecap:butt;stroke-linejoin:miter;stroke-opacity:1"
       d="m 74.2742,78.386889 c 0,0 15.983465,2.776001 23.573174,5.519115 0.327862,0.118498 0.586973,0.457483 0.935442,0.467723 0.237368,0.007 0.424297,-0.223567 0.654809,-0.280633 1.882695,-0.466081 4.012365,-0.08811 5.893285,-0.561267 0.52811,-0.132848 0.95339,-0.254276 1.40317,-0.561265 0.61918,-0.422608 1.11499,-1.010516 1.59026,-1.590254 0.14255,-0.173888 0.17593,-0.455168 0.37418,-0.561266 0.49485,-0.264836 1.21739,-0.05511 1.77733,-0.09354 0.91069,-0.06251 1.75277,-0.138396 2.61925,-0.280632 0.85105,-0.139702 1.87089,-0.561266 2.5257,-0.561266 0.65481,0 3.63257,-0.325193 5.23848,-0.374183 1.60591,-0.04899 2.93331,0.0064 4.39658,0.09355 1.59505,0.09502 3.17479,0.389675 4.77076,0.467722 1.09005,0.05331 3.27405,0 3.27405,0 0,0 1.191,-0.166857 1.30962,-0.09354 0.90184,0.557363 1.43435,0 2.15152,0 1.06017,0 2.14026,0.20455 3.18051,-10e-7 0.72725,-0.143004 1.24957,-0.81197 1.87089,-1.216076 0.90586,-0.589172 2.0249,-1.598775 2.71279,-2.432152 0.80384,-0.973849 1.41327,-2.605656 1.96442,-3.741775 0.58964,-1.215441 0.7354,-1.450277 1.21608,-2.712783 0.22873,-0.600754 0.74836,-1.777344 0.74836,-1.777344 l 0.46772,-0.561266 -0.37418,-0.748355 -3.3676,-2.338608 c 0,0 -1.87785,-1.026052 -2.89987,-1.309621 -1.54293,-0.428102 -3.17177,0.08452 -4.77076,0 -2.70918,-0.143199 -8.13836,-0.467726 -8.13836,-0.467726 l -4.0224,-3.367596 -2.43216,-2.057974 -3.08696,-0.748355 c 0,0 1.15938,-0.808292 1.49671,-1.403165 0.36203,-0.63842 0.47118,-1.417604 0.46772,-2.15152 -0.003,-0.703477 -0.46772,-2.057974 -0.46772,-2.057974 l 36.66938,-12.25431 c 0,0 0.61988,-0.235838 0.8419,-0.46772 0.2411,-0.251808 0.39976,-0.593512 0.46772,-0.935444 0.0853,-0.429255 0.0765,-0.906339 -0.0935,-1.309619 -0.14586,-0.345989 -0.4349,-0.635206 -0.74836,-0.841902 -0.24696,-0.162842 -0.8419,-0.280633 -0.8419,-0.280633 L 119.5497,47.330177 c 0,0 -2.15735,-0.906917 -2.80633,-1.122532 -1.36408,-0.453194 -3.27405,-0.654812 -3.27405,-0.654812 0,0 0.0211,-0.704214 -0.0935,-1.028986 -0.1871,-0.530081 -0.44893,-1.121572 -0.93544,-1.403165 -0.40571,-0.234821 -0.94926,-0.210605 -1.40317,-0.09355 -0.50252,0.129591 -1.06094,0.386399 -1.30962,0.841899 -0.22413,0.410525 0,1.403165 0,1.403165 l -0.93544,-0.374177 c 0,0 0.0297,-0.417067 -0.0935,-0.561266 -0.25622,-0.299868 -0.76247,-0.213186 -1.12254,-0.374176 -0.2295,-0.102611 -0.44096,-0.242014 -0.65481,-0.374179 -0.0956,-0.05911 -0.92138,0.03258 -1.02898,2e-6 -1.01468,-0.307221 -2.5257,0.09354 -2.5257,0.09354 l -2.61924,0.187087 -2.245067,0.748355 v 0.65481 l -1.403165,0.467722 -0.280633,0.65481 v 1.216078 l -7.390003,1.870887 c -0.731113,0.185092 -1.122531,1.683797 -1.122531,1.683797 0,0 -0.43388,-0.337635 -0.561266,-0.187089 l -2.057977,2.432153 c -0.245857,0.290558 0.654812,0.935442 0.654812,0.935442 l -1.590254,3.274052 0.935442,0.374179 -0.187087,0.65481 -1.964431,-0.18709 -0.654812,0.280633 c 0,0 -1.309692,-0.363728 -1.777341,0 l -1.683798,1.309622 c 0,0 -1.880245,0.155446 -2.712785,0.280633 -0.838797,0.126128 -1.715524,0.118426 -2.338608,0.561266 -0.444601,0.315988 -0.796948,0.953426 -0.748355,1.49671 0.02953,0.330144 0.654809,0.561264 0.654809,0.561264 l -0.187089,0.748355 0.561266,0.374179 -0.841899,1.964431 -1.590252,0.280633 -1.683798,1.122532 -0.654812,1.590254 1.216078,-0.561269 c 0,0 -0.493288,1.103652 -0.654812,1.683801 -0.195245,0.701265 -0.38335,1.423638 -0.374176,2.151517 0.01002,0.794911 0.231922,1.579411 0.467722,2.33861 0.281747,0.907136 0.450869,1.947565 1.122532,2.61924 0.671634,0.671646 2.61911,1.122531 2.61911,1.122531 z"
       id="path3758"
       inkscape:connector-curvature="0"
       sodipodi:nodetypes="csssssssssszsscsssssssccccssccccssccssssccscssssccsssscccccccscssccccccscsssccccccccssssc" />
  </g>
  <g
     inkscape:groupmode="layer"
     id="layer5"
     inkscape:label="Ubuntu 1"
     style="display:inline">
    <path
       style="fill:#ffffff;stroke:#000000;stroke-width:0.26458332px;stroke-linecap:butt;stroke-linejoin:miter;stroke-opacity:1"
       d="m 71.093824,68.471184 c 0.323729,-0.224598 0.510678,-0.615195 0.839769,-0.831861 0.516379,-0.339973 1.719791,-0.694531 1.719791,-0.694531 l 2.678907,-0.496094 8.797395,-0.529166 9.392709,-0.198438 c 0,0 7.021265,-0.139712 7.739065,-0.132291 0.61821,0.0064 1.2137,0.339419 1.71979,0.694531 0.35148,0.246631 0.6463,0.586627 0.85989,0.959114 0.30523,0.532305 0.56224,1.752865 0.56224,1.752865 l 0.46302,0.297656 3.40652,-0.03307 3.77031,-0.165364 -0.16537,-0.859896 c 0,0 -0.82158,-1.198493 -1.32291,-1.719792 -0.59684,-0.620607 -1.21666,-1.263808 -1.98438,-1.653646 -0.77004,-0.391018 -2.38125,-0.628385 -2.51354,-0.628385 -0.13229,0 -0.6632,0.343376 -1.02526,0.363802 -1.85382,0.104584 -8.962761,-0.03307 -8.962761,-0.03307 l -5.128396,0.149428 -8.795302,0.445885 -5.754687,0.429948 -3.584017,0.450233 h -0.03307 c 0,0 -1.057569,0.08031 -1.557178,0.280633 -0.626103,0.251045 -1.256136,0.600868 -1.683798,1.122532 -0.363443,0.443329 -0.654812,1.590254 -0.654812,1.590254 0,0 0.849262,-0.306786 1.216078,-0.561277 z"
       id="path3761"
       inkscape:connector-curvature="0"
       sodipodi:nodetypes="ssccccssscccccsssscccccssscs" />
    <path
       style="fill:#ffffff;stroke:#000000;stroke-width:0.26458332px;stroke-linecap:butt;stroke-linejoin:miter;stroke-opacity:1"
       d="m 112.97708,71.442709 0.0331,-1.157552 c 0,0 0.93113,-0.03996 1.19063,-0.363802 0.17977,-0.22434 0.0554,-0.71865 -0.033,-0.992188 -0.0578,-0.178633 -0.31456,-0.513372 -0.42995,-0.661458 -0.5585,-0.716707 -0.89005,-1.283985 -1.42214,-1.852084 -0.4913,-0.524548 -1.02724,-1.01657 -1.62057,-1.422135 -0.53326,-0.364505 -1.11299,-0.671558 -1.71979,-0.892969 -0.52009,-0.189773 -1.0698,-0.307543 -1.62057,-0.363802 -1.27239,-0.129971 -3.83646,0.06615 -3.83646,0.06615 0,0 -0.56936,-1.43412 -0.92604,-2.116667 -0.68304,-1.307077 -2.31511,-3.770312 -2.31511,-3.770312 0,0 3.175,-0.463021 3.60495,-0.363802 0.42995,0.09922 4.69302,-0.353842 7.04453,-0.396875 2.80025,-0.05125 5.60018,0.119381 8.40052,0.165365 0.83781,0.01376 2.51354,0.03307 2.51354,0.03307 0,0 1.41713,1.117007 2.11667,1.686719 1.7238,1.403881 3.38612,2.882891 5.1263,4.266406 1.48428,1.18006 2.99377,2.32937 4.53099,3.439584 1.45267,1.049149 4.43177,3.042708 4.43177,3.042708 z"
       id="path3763"
       inkscape:connector-curvature="0"
       sodipodi:nodetypes="ccssssssscscssscssscc" />
    <path
       style="fill:#ffffff;stroke:#000000;stroke-width:0.26458332px;stroke-linecap:butt;stroke-linejoin:miter;stroke-opacity:1"
       d="m 101.20312,57.089063 c 0,0 1.50508,-0.557802 2.21589,-0.926042 0.68171,-0.35316 1.78594,-1.157552 1.9513,-1.223697 0.16537,-0.06615 0.9598,-0.923581 1.35599,-1.455209 0.35137,-0.471492 0.70088,-0.965592 0.89297,-1.521354 0.21442,-0.620377 0.27555,-1.295008 0.26458,-1.951302 -0.01,-0.59257 -0.038,-1.220134 -0.29765,-1.752865 -0.29407,-0.60327 -1.35599,-1.488281 -1.35599,-1.488281 0,0 3.11768,-0.577454 4.69635,-0.661458 1.31078,-0.06975 3.93568,0.132292 3.93568,0.132292 l 1.65364,0.496093 c 0,0 -2.09419,0.119087 -3.14192,0.165365 -1.23431,0.05452 -2.47043,0.06622 -3.70417,0.132292 -0.30902,0.01655 -0.92604,0.06614 -0.92604,0.06614 0,0 0.12699,0.678772 0.26458,0.992188 0.23111,0.526462 0.92604,1.455208 0.92604,1.455208 l 0.59532,-0.03307 c 0,0 0.43069,0.665992 0.59531,1.025261 0.12635,0.27575 0.29765,0.859895 0.29765,0.859895 l 0.42995,0.132292 c 0,0 -0.0683,0.509331 -0.0331,0.760677 0.0532,0.379775 0.3638,1.091406 0.3638,1.091406 l 0.42995,0.198438 c 0,0 1.31696,-0.2656 1.98437,-0.330729 0.74643,-0.07284 1.49945,-0.09249 2.24896,-0.06615 0.4429,0.01557 1.32292,0.132292 1.32292,0.132292 l 0.0662,-1.322917 2.11666,-0.79375 c 0,0 0.44217,1.360778 0.3638,2.050521 -0.0541,0.476082 -0.26237,0.949206 -0.56224,1.322916 -0.29676,0.369832 -0.74555,0.592093 -1.15755,0.826823 -0.35596,0.202806 -0.72811,0.392485 -1.12448,0.496094 -0.55719,0.145647 -1.1452,0.126505 -1.71979,0.165365 -1.68417,0.113901 -3.27897,0.0524 -5.06015,0.198437 -1.21837,0.09989 -2.72137,0.322111 -3.93568,0.463021 -1.36534,0.158436 -2.72735,0.382701 -4.10104,0.429948 -0.6174,0.02123 -1.85211,-0.06614 -1.85211,-0.06614 z"
       id="path3765"
       inkscape:connector-curvature="0"
       sodipodi:nodetypes="csssssscaccsscsccsccsccsscccssssssssc" />
    <path
       style="fill:#ffffff;stroke:#000000;stroke-width:0.26458332px;stroke-linecap:butt;stroke-linejoin:miter;stroke-opacity:1"
       d="m 113.17552,52.657292 -0.39688,-0.959114 -0.0661,-1.35599 -0.33073,-1.223698 -0.66146,-0.760677 -0.85989,-0.661458 2.41432,-0.165365 1.62057,-0.165364 1.32292,0.198437 1.05833,0.06615 0.26458,0.23151 -0.0992,0.231511 -0.52917,0.198437 -0.89297,-0.06614 -0.52917,0.628385 -0.13229,1.223698 0.23151,0.992187 -0.39687,0.231511 -0.46302,-0.56224 -0.19844,-0.727604 -0.0661,-0.959115 0.42995,-0.694531 -0.42995,0.694531 0.0992,1.091407 0.0992,0.463021 h -0.52917 l -0.59531,-0.826823 -0.19844,-0.56224 0.62839,-0.859896 -0.62839,0.859896 -0.0331,1.058333 0.42995,1.223698 0.76068,0.959115 -0.56224,0.165364 z"
       id="path3767"
       inkscape:connector-curvature="0" />
    <path
       style="fill:#ffffff;stroke:#000000;stroke-width:0.26458332px;stroke-linecap:butt;stroke-linejoin:miter;stroke-opacity:1"
       d="m 111.32344,45.248959 c 0,0 0.12483,-0.432299 0.23151,-0.628385 0.15805,-0.29052 0.29404,-0.657303 0.59531,-0.79375 0.13094,-0.0593 0.32065,-0.06029 0.42995,0.03307 0.18095,0.154566 0.10594,0.464086 0.16536,0.694531 0.0514,0.199429 0.16537,0.595312 0.16537,0.595312 z"
       id="path3769"
       inkscape:connector-curvature="0"
       sodipodi:nodetypes="csssscc" />
    <path
       style="fill:#ffffff;stroke:#000000;stroke-width:0.26458332px;stroke-linecap:butt;stroke-linejoin:miter;stroke-opacity:1"
       d="m 108.04922,44.752865 c 0,0 -2.16149,-0.03945 -3.24115,0 -0.90581,0.0331 -2.71198,0.198438 -2.71198,0.198438 l -0.95911,0.06615 -0.52917,-0.429948 c 0,0 0.16376,-0.264231 0.50917,-0.365725 0.26916,-0.07909 0.70058,0.0056 0.91297,-0.03115 0.92564,-0.16014 1.87223,-0.22714 2.81119,-0.198438 0.75584,0.0231 1.52449,0.08094 2.24896,0.297657 0.34012,0.101744 0.95912,0.463016 0.95912,0.463016 z"
       id="path3771"
       inkscape:connector-curvature="0"
       sodipodi:nodetypes="cscccssssc" />
    <path
       style="fill:#ffffff;stroke:#000000;stroke-width:0.26458332px;stroke-linecap:butt;stroke-linejoin:miter;stroke-opacity:1"
       d="m 158.12162,38.369793 c 0.35205,-0.07492 0.60122,-0.291364 0.7276,-0.628386 0.20519,-0.547184 0.29662,-1.23126 0.0331,-1.752864 -0.14621,-0.289398 -0.48041,-0.478913 -0.79375,-0.56224 -0.33182,-0.08824 -0.74324,-0.09662 -1.02526,0.09922 -0.39283,0.272787 -0.61681,0.811726 -0.62839,1.289843 -0.0102,0.419671 0.20645,0.853692 0.4961,1.157553 0.31297,0.32833 0.74693,0.491287 1.1906,0.396874 z"
       id="path3773"
       inkscape:connector-curvature="0"
       sodipodi:nodetypes="ssssssss" />
    <path
       style="fill:#000000;stroke:#000000;stroke-width:0.26458332px;stroke-linecap:butt;stroke-linejoin:miter;stroke-opacity:1"
       d="m 157.5263,37.54297 c -0.18374,-0.179873 -0.36678,-0.406097 -0.39687,-0.661459 -0.0257,-0.218148 0.0613,-0.456801 0.19843,-0.628385 0.0956,-0.119637 0.24373,-0.232457 0.39688,-0.231511 0.19284,0.0012 0.38639,0.139053 0.49609,0.297657 0.14023,0.20274 0.16501,0.483274 0.13229,0.727604 -0.0373,0.278579 -0.0955,0.676872 -0.3638,0.760677 -0.16968,0.053 -0.33599,-0.14023 -0.46302,-0.264583 z"
       id="path3775"
       inkscape:connector-curvature="0"
       sodipodi:nodetypes="ssssssss" />
  </g>
  <g
     inkscape:groupmode="layer"
     id="layer6"
     inkscape:label="debian"
     style="display:inline">
    <path
       style="fill:#000000;stroke:#000000;stroke-width:0.26458332px;stroke-linecap:butt;stroke-linejoin:miter;stroke-opacity:1"
       d="m 54.442801,268.9367 c -1.869053,-0.32263 -3.760512,-0.52681 -5.612659,-0.93546 -3.664027,-0.80843 -7.381026,-1.5662 -10.851142,-2.99341 -2.711351,-1.11514 -5.40808,-2.43868 -7.670636,-4.30303 -2.08292,-1.71633 -3.936847,-3.80959 -5.238483,-6.17393 -1.008332,-1.83157 -1.699854,-3.90306 -1.870886,-5.98684 -0.257561,-3.138 0.197762,-6.40873 1.30962,-9.35443 1.160519,-3.07462 3.078369,-5.93174 5.42557,-8.2319 2.422078,-2.37354 5.271242,-4.80994 8.606081,-5.42557 1.250822,-0.23091 3.741772,0.74835 3.741772,0.74835 0,0 4.792362,1.51686 6.92228,2.80633 2.308807,1.39777 4.158865,3.44297 6.173928,5.23848 1.976502,1.76115 3.7469,3.75404 5.799749,5.42557 2.012582,1.63875 3.922014,3.60286 6.361014,4.49013 1.411406,0.51345 3.236282,1.20096 4.490128,0.37418 0.987827,-0.65137 1.009085,-2.18979 1.122531,-3.36759 0.138686,-1.43984 -0.09406,-2.93408 -0.561266,-4.30305 -0.559661,-1.63987 -1.571925,-3.10971 -2.61924,-4.49012 -1.732683,-2.28376 -3.847313,-4.26601 -5.986838,-6.17393 -2.290155,-2.04225 -4.657669,-4.04665 -7.296459,-5.61266 -1.992986,-1.18275 -6.361015,-2.80633 -6.361015,-2.80633 0,0 8.093532,-3.11133 12.347853,-3.74177 1.60392,-0.23768 3.257727,-0.21899 4.864306,0 2.30872,0.3147 4.551098,1.05912 6.735191,1.87088 3.425538,1.27317 6.785217,2.79166 9.9157,4.67722 2.93815,1.76972 5.640725,3.92661 8.231901,6.17393 1.932178,1.67577 3.360999,3.91592 5.425573,5.42557 1.643598,1.20183 3.398746,2.61188 5.425566,2.80633 1.10002,0.10554 2.33289,-0.22641 3.18051,-0.93544 0.64176,-0.53683 0.99812,-1.41768 1.12253,-2.24507 0.11281,-0.75024 -0.19898,-1.50689 -0.37418,-2.24506 -0.43729,-1.84243 -0.81036,-3.74542 -1.68379,-5.42557 -0.79975,-1.53841 -2.00929,-2.83746 -3.18051,-4.11596 -1.49056,-1.62709 -3.118899,-3.14003 -4.864305,-4.49012 -2.462952,-1.90512 -4.394971,-3.52574 -7.109368,-5.0514 -2.236869,-1.25726 -7.670636,-3.36759 -7.670636,-3.36759 0,0 5.20715,-1.50528 7.857723,-2.05798 1.977297,-0.41231 3.970255,-0.82102 5.986838,-0.93544 1.495603,-0.0849 3.005125,-0.01 4.490128,0.18709 1.96472,0.26058 3.92338,0.67146 5.79975,1.30962 3.51335,1.1949 6.88631,2.82636 10.10279,4.67721 2.6392,1.51866 5.13434,3.30124 7.48354,5.23849 2.00755,1.65551 3.57992,3.80109 5.61266,5.42557 1.68902,1.34979 3.41179,2.76764 5.42557,3.55468 1.41325,0.55234 3.07821,1.30409 4.49013,0.74836 0.95176,-0.37461 1.56361,-1.45658 1.87089,-2.43216 0.4126,-1.30996 0.16782,-2.7892 -0.18709,-4.11595 -0.52617,-1.96697 -1.68021,-3.7292 -2.80633,-5.42557 -1.07753,-1.62318 -2.38461,-3.09231 -3.74177,-4.49013 -1.508,-1.55317 -3.13505,-3.0007 -4.86431,-4.30303 -1.94856,-1.46748 -4.02035,-2.78323 -6.17393,-3.92887 -2.34235,-1.24607 -7.29645,-3.1805 -7.29645,-3.1805 0,0 5.44772,-1.66391 8.2319,-2.24507 2.52959,-0.52802 5.08709,-1.17637 7.67064,-1.12253 2.34785,0.0489 4.69709,0.55907 6.92228,1.30962 4.09614,1.38162 7.89876,3.5655 11.59949,5.79975 2.56316,1.54746 4.89825,3.44598 7.29646,5.23848 2.27815,1.70277 4.46227,3.52874 6.73519,5.23848 1.35572,1.0198 2.62704,2.18033 4.11595,2.99342 1.05708,0.57727 2.16922,1.43013 3.3676,1.30962 1.03272,-0.10385 2.12188,-0.77279 2.61924,-1.68379 0.80686,-1.47789 0.40484,-3.41699 0,-5.0514 -0.61035,-2.46409 -2.014,-4.71762 -3.55469,-6.73519 -1.60668,-2.10399 -2.97988,-4.15139 -5.05139,-5.79975 -3.23473,-2.57397 -11.03823,-6.5481 -11.03823,-6.5481 0,0 7.27285,0.62448 10.85114,1.30962 3.35761,0.64288 6.72707,1.38657 9.9157,2.61924 3.2781,1.26725 6.54803,2.74865 9.35444,4.8643 2.60667,1.96507 5.10691,4.28007 6.73519,7.10937 1.10242,1.91557 1.45239,4.19086 1.87088,6.36102 0.2491,1.29175 0.56552,2.6273 0.37418,3.92886 -0.26444,1.79884 -1.15781,3.47169 -2.05797,5.0514 -1.12387,1.97231 -2.54514,3.78679 -4.11596,5.42557 -1.62444,1.69472 -3.50565,3.13926 -5.42556,4.49013 -3.20143,2.25256 -6.54841,4.34685 -10.10279,5.98683 -4.54845,2.09863 -9.48305,3.23154 -14.21874,4.86431 -7.36491,2.53927 -14.80136,4.88445 -22.07646,7.67063 -1.9577,0.74975 -3.82553,1.72707 -5.79976,2.43216 -2.267,0.80965 -4.62906,1.32589 -6.92228,2.05797 -2.57386,0.82167 -5.12603,1.711 -7.67063,2.61924 -3.19654,1.14094 -6.36861,2.3496 -9.54152,3.55469 -3.87593,1.4721 -7.639482,3.26203 -11.599499,4.49012 -3.366304,1.04397 -6.828425,1.76865 -10.289876,2.43215 -5.448306,1.04434 -10.931219,2.02571 -16.463803,2.43216 -2.923178,0.21475 -5.873545,0.25863 -8.793168,0 -1.766864,-0.15652 -3.490549,-0.63372 -5.238483,-0.93544 z"
       id="path3812"
       inkscape:connector-curvature="0"
       sodipodi:nodetypes="ssssssssacsssssssssscsssssssssssssscssssssssssssssscsssssssssssscsssssssssssssssssssss" />
    <path
       style="fill:#000000;stroke:#000000;stroke-width:0.26458332px;stroke-linecap:butt;stroke-linejoin:miter;stroke-opacity:1"
       d="m 46.978871,220.66256 c 1.969108,-0.41844 3.746154,-0.0473 5.593043,0.75362 2.129274,0.92338 4.087694,2.22063 5.986838,3.55468 2.247678,1.57888 4.176203,3.34413 6.030286,5.37077 1.93819,2.11858 3.917965,4.4053 5.195035,6.97708 0.613968,1.23642 0.944461,2.55188 0.8466,3.92887 -0.02966,0.41729 0.257618,0.90259 -0.09825,1.12253 -0.371343,0.2295 -0.888921,0.11653 -1.309621,0 -1.752204,-0.48533 -3.202012,-1.74354 -4.677217,-2.80634 -1.171544,-0.84403 -2.188798,-1.84127 -3.290102,-2.81768 -1.089375,-0.96583 -2.221793,-1.9594 -3.258002,-2.98206 -1.445116,-1.42622 -2.892349,-2.86312 -4.490127,-4.11595 -2.30027,-1.80366 -4.659247,-3.60354 -7.29646,-4.86431 -1.245653,-0.59551 -3.952247,-1.23946 -3.952247,-1.23946 0,0 2.793953,-2.47242 4.720224,-2.88175 z"
       id="path3814"
       inkscape:connector-curvature="0"
       sodipodi:nodetypes="ssssssssssssscs" />
    <path
       style="fill:#000000;stroke:#000000;stroke-width:0.26458332px;stroke-linecap:butt;stroke-linejoin:miter;stroke-opacity:1"
       d="m 69.971162,212.15529 c 0,0 5.878997,1.85726 8.699622,3.08696 2.902143,1.26524 5.784759,2.64042 8.418991,4.39658 1.8237,1.2158 3.372437,2.80054 5.051393,4.2095 2.220311,1.86325 4.320822,3.87621 6.641648,5.61266 1.405694,1.05174 2.732784,2.33961 4.396584,2.89987 0.44425,0.14959 1.00082,0.33403 1.40316,0.0935 0.32339,-0.19333 0.43547,-0.6536 0.46773,-1.02899 0.0635,-0.73845 -0.33503,-1.44572 -0.56127,-2.15152 -0.34646,-1.08085 -0.69903,-2.1701 -1.21608,-3.18051 -0.54368,-1.06245 -1.24038,-2.04466 -1.96443,-2.99342 -0.85775,-1.12395 -1.799426,-2.18795 -2.806327,-3.1805 -1.637855,-1.61451 -3.385064,-3.12849 -5.238483,-4.49013 -1.18533,-0.87082 -2.444519,-1.64546 -3.741774,-2.33861 -1.809481,-0.96685 -3.694206,-1.79869 -5.612659,-2.5257 -1.374142,-0.52074 -2.650933,-1.0078 -4.115951,-1.12253 -1.288112,-0.10088 -2.680746,0.0401 -3.928862,0.37418 -2.041581,0.54648 -5.893292,2.33866 -5.893292,2.33866 z"
       id="path3816"
       inkscape:connector-curvature="0"
       sodipodi:nodetypes="cssssssssssssssssc" />
    <path
       style="fill:#000000;stroke:#000000;stroke-width:0.26458332px;stroke-linecap:butt;stroke-linejoin:miter;stroke-opacity:1"
       d="m 103.64712,202.33313 c 0,0 3.20456,0.92678 4.77076,1.49671 2.82424,1.02772 5.68072,2.03359 8.32545,3.46114 2.8844,1.55691 5.53721,3.52469 8.13835,5.51912 0.7193,0.55153 1.37131,1.18568 2.05798,1.77734 1.77559,1.52992 3.493,3.13061 5.33203,4.58367 1.20878,0.95509 2.41715,1.9262 3.74177,2.71279 0.6236,0.37031 1.24469,0.84609 1.96443,0.93544 0.31557,0.0392 0.71691,0.0439 0.93544,-0.18709 0.30304,-0.32035 0.22669,-0.87043 0.18709,-1.30962 -0.11512,-1.27668 -0.69286,-2.47802 -1.21607,-3.64823 -0.61567,-1.37699 -1.37131,-2.69935 -2.24507,-3.92886 -0.74255,-1.04488 -1.6271,-1.98572 -2.52569,-2.89988 -1.79532,-1.82643 -3.65868,-3.60654 -5.70621,-5.14493 -1.46659,-1.1019 -3.03887,-2.07472 -4.67721,-2.89988 -2.1875,-1.10175 -4.4383,-2.17912 -6.82874,-2.71278 -1.49397,-0.33353 -2.12017,-0.37144 -3.64823,-0.28064 -1.04402,0.062 -2.92739,0.35337 -3.92887,0.65481 -1.59175,0.47912 -4.67721,1.87089 -4.67721,1.87089 z"
       id="path3818"
       inkscape:connector-curvature="0"
       sodipodi:nodetypes="csssssssssssssssssc" />
    <path
       style="fill:#000000;stroke:#000000;stroke-width:0.26458332px;stroke-linecap:butt;stroke-linejoin:miter;stroke-opacity:1"
       d="m 138.91333,192.69807 c 0,0 3.0276,0.90505 4.49013,1.4967 2.34012,0.94667 4.6205,2.05094 6.82874,3.27406 2.90584,1.60951 5.79445,3.29579 8.41899,5.33202 1.15028,0.89243 2.09181,2.02682 3.18051,2.99342 1.30764,1.16099 2.64409,2.29145 4.0224,3.3676 1.33715,1.04402 3.46114,2.52569 4.11595,2.99342 0.65481,0.46772 1.50878,1.06307 2.33861,0.93544 0.43802,-0.0674 0.42184,-0.51478 0.56127,-0.93544 0.24268,-0.73222 0.16178,-1.42362 -0.0936,-2.15152 -0.54498,-1.55362 -1.18966,-3.09129 -2.05797,-4.49013 -0.78334,-1.26194 -1.8046,-2.36449 -2.80633,-3.46114 -1.08564,-1.1885 -2.26509,-2.29028 -3.46114,-3.3676 -0.90476,-0.81495 -1.79358,-1.66253 -2.80633,-2.33861 -1.8444,-1.23126 -3.85648,-2.20993 -5.8933,-3.08696 -2.02874,-0.87356 -3.07848,-1.2219 -5.23847,-1.6838 -1.34719,-0.28808 -2.92618,-0.70103 -4.30305,-0.65481 -1.38846,0.0466 -3.17772,0.19921 -4.49013,0.65481 -0.84403,0.293 -2.80633,1.12254 -2.80633,1.12254 z"
       id="path3820"
       inkscape:connector-curvature="0"
       sodipodi:nodetypes="csssssssssssssssssc" />
  </g>
</svg>
