<?xml version="1.0" encoding="UTF-8" standalone="no"?>
<!-- Created with Inkscape (http://www.inkscape.org/) -->

<svg
   xmlns:dc="http://purl.org/dc/elements/1.1/"
   xmlns:cc="http://creativecommons.org/ns#"
   xmlns:rdf="http://www.w3.org/1999/02/22-rdf-syntax-ns#"
   xmlns:svg="http://www.w3.org/2000/svg"
   xmlns="http://www.w3.org/2000/svg"
   xmlns:sodipodi="http://sodipodi.sourceforge.net/DTD/sodipodi-0.dtd"
   xmlns:inkscape="http://www.inkscape.org/namespaces/inkscape"
   width="210mm"
   height="297mm"
   viewBox="0 0 210 297"
   version="1.1"
   id="svg8"
   inkscape:version="0.92.3 (2405546, 2018-03-11)"
   sodipodi:docname="hajzl.svg">
  <defs
     id="defs2">
    <inkscape:path-effect
       effect="bspline"
       id="path-effect851"
       is_visible="true"
       weight="33.333333"
       steps="2"
       helper_size="0"
       apply_no_weight="true"
       apply_with_weight="true"
       only_selected="false" />
    <inkscape:path-effect
       effect="bspline"
       id="path-effect5228"
       is_visible="true"
       weight="33.333333"
       steps="2"
       helper_size="0"
       apply_no_weight="true"
       apply_with_weight="true"
       only_selected="false" />
    <inkscape:path-effect
       effect="bspline"
       id="path-effect4522"
       is_visible="true"
       weight="33.333333"
       steps="2"
       helper_size="0"
       apply_no_weight="true"
       apply_with_weight="true"
       only_selected="false" />
    <inkscape:path-effect
       effect="bspline"
       id="path-effect5228-9"
       is_visible="true"
       weight="33.333333"
       steps="2"
       helper_size="0"
       apply_no_weight="true"
       apply_with_weight="true"
       only_selected="false" />
  </defs>
  <sodipodi:namedview
     id="base"
     pagecolor="#ffffff"
     bordercolor="#666666"
     borderopacity="1.0"
     inkscape:pageopacity="0.0"
     inkscape:pageshadow="2"
     inkscape:zoom="1"
     inkscape:cx="249.87115"
     inkscape:cy="797.41257"
     inkscape:document-units="mm"
     inkscape:current-layer="layer1"
     showgrid="true"
     inkscape:window-width="1920"
     inkscape:window-height="1017"
     inkscape:window-x="-8"
     inkscape:window-y="-8"
     inkscape:window-maximized="1"
     inkscape:measure-start="0,0"
     inkscape:measure-end="0,0">
    <inkscape:grid
       type="xygrid"
       id="grid4518"
       units="px"
       spacingy="0.26458333"
       spacingx="0.26458333"
       dotted="false"
       visible="true"
       enabled="true" />
  </sodipodi:namedview>
  <metadata
     id="metadata5">
    <rdf:RDF>
      <cc:Work
         rdf:about="">
        <dc:format>image/svg+xml</dc:format>
        <dc:type
           rdf:resource="http://purl.org/dc/dcmitype/StillImage" />
        <dc:title></dc:title>
      </cc:Work>
    </rdf:RDF>
  </metadata>
  <g
     inkscape:label="Vrstva 1"
     inkscape:groupmode="layer"
     id="layer1">
    <path
       style="fill:none;stroke:#000000;stroke-width:0.24495652px;stroke-linecap:butt;stroke-linejoin:miter;stroke-opacity:1"
       d="m 5.8208336,81.364589 v -15.875 l 0.529166,2e-6 v 15.874998 z"
       id="path4680-0-6-6"
       inkscape:connector-curvature="0" />
    <path
       style="fill:none;stroke:#000000;stroke-width:0.24495655px;stroke-linecap:butt;stroke-linejoin:miter;stroke-opacity:1"
       d="M 5.8208336,25.802089 V 9.9270893 l 0.529167,1.8e-6 V 25.802089 Z"
       id="path4680-0-6-6-8"
       inkscape:connector-curvature="0" />
    <path
       style="fill:none;stroke:#000000;stroke-width:0.24495652px;stroke-linecap:butt;stroke-linejoin:miter;stroke-opacity:1"
       d="M 34.395833,87.450007 H 18.520832 l 2e-6,-0.529166 h 15.874999 z"
       id="path4680-0-6-6-87"
       inkscape:connector-curvature="0" />
    <path
       style="fill:none;stroke:#000000;stroke-width:0.28063297px;stroke-linecap:butt;stroke-linejoin:miter;stroke-opacity:1"
       d="M 55.562501,93.270838 V 140.89584 H 97.895833 V 93.270838 Z"
       id="path5003-6"
       inkscape:connector-curvature="0" />
    <path
       style="fill:none;stroke:#000000;stroke-width:0.26458332px;stroke-linecap:butt;stroke-linejoin:miter;stroke-opacity:1"
       d="m 21.166666,93.270828 -3.96875,-2.645825 H 35.71875 L 31.75,93.270828 h 15.874999 v 15.875002 l 2.645834,-3.96874 v 18.52083 l -2.645834,-3.96875 v 15.875 H 31.75 L 35.71875,138.25 H 17.197916 l 3.96875,-2.64583 H 5.2916674 v -15.875 l -2.6458341,3.96875 0,-17.19792 2.6458341,2.64583 V 93.270828 Z"
       id="path5092"
       inkscape:connector-curvature="0"
       sodipodi:nodetypes="ccccccccccccccccccccc" />
    <path
       style="fill:none;stroke:#000000;stroke-width:0.24495652px;stroke-linecap:butt;stroke-linejoin:miter;stroke-opacity:1"
       d="M 84.666666,95.916669 H 68.791665 l 2e-6,-0.529166 h 15.874999 z"
       id="path4680-0-6-6-87-6"
       inkscape:connector-curvature="0" />
    <path
       style="fill:none;stroke:#000000;stroke-width:0.24495652px;stroke-linecap:butt;stroke-linejoin:miter;stroke-opacity:1"
       d="M 84.666666,132.95834 H 68.791665 l 2e-6,-0.52917 h 15.874999 z"
       id="path4680-0-6-6-87-6-8"
       inkscape:connector-curvature="0" />
    <path
       style="fill:none;stroke:#000000;stroke-width:0.24495652px;stroke-linecap:butt;stroke-linejoin:miter;stroke-opacity:1"
       d="m 58.586177,105.97983 -0.222929,15.87344 -0.529114,-0.007 0.222929,-15.87344 z"
       id="path4680-0-6-6-87-6-9"
       inkscape:connector-curvature="0" />
    <path
       style="fill:none;stroke:#000000;stroke-width:0.24495652px;stroke-linecap:butt;stroke-linejoin:miter;stroke-opacity:1"
       d="m 95.624196,106.5 -0.22293,15.87344 -0.529117,-0.007 0.222929,-15.87344 z"
       id="path4680-0-6-6-87-6-8-3"
       inkscape:connector-curvature="0" />
    <path
       style="fill:none;stroke:#000000;stroke-width:0.26458332px;stroke-linecap:butt;stroke-linejoin:miter;stroke-opacity:1"
       d="M 5.2916666,3.3125056 H 21.166666 L 17.197916,0.6666704 H 35.71875 l -3.968746,2.6458352 h 15.875 V 11.250006 L 50.270833,7.2812536 V 28.44792 l -2.645829,-3.968748 v 42.333333 l 2.645829,-3.968752 v 21.166666 l -2.645829,-3.968747 v 7.937497 H 5.2916666 Z"
       id="path5142"
       inkscape:connector-curvature="0"
       sodipodi:nodetypes="ccccccccccccccccc" />
    <path
       style="fill:none;stroke:#000000;stroke-width:0.26458332px;stroke-linecap:butt;stroke-linejoin:miter;stroke-opacity:1"
       d="m 100.54167,93.270831 v 15.875009 h 15.875 V 93.270831 Z"
       id="path5144"
       inkscape:connector-curvature="0" />
    <path
       style="fill:none;stroke:#000000;stroke-width:0.26458332px;stroke-linecap:butt;stroke-linejoin:miter;stroke-opacity:1"
       d="M 119.06251,93.270831 V 109.14584 H 134.9375 V 93.270831 Z"
       id="path5144-4"
       inkscape:connector-curvature="0" />
    <path
       style="fill:none;stroke:#000000;stroke-width:0.26458332px;stroke-linecap:butt;stroke-linejoin:miter;stroke-opacity:1"
       d="M 142.875,127.66667 H 100.54167 V 111.79168 H 142.875 Z"
       id="path5161"
       inkscape:connector-curvature="0" />
    <path
       style="fill:none;stroke:#000000;stroke-width:0.265;stroke-linecap:butt;stroke-linejoin:miter;stroke-opacity:1;stroke-miterlimit:4;stroke-dasharray:none"
       d="M 142.875,146.1875 H 100.54167 V 130.31251 H 142.875 Z"
       id="path5161-6"
       inkscape:connector-curvature="0" />
    <path
       style="fill:none;stroke:#000000;stroke-width:0.24495652px;stroke-linecap:butt;stroke-linejoin:miter;stroke-opacity:1"
       d="M 53.445833,81.364589 V 65.489585 l 0.529166,3e-6 v 15.875001 z"
       id="path4680-0-6-6-0"
       inkscape:connector-curvature="0" />
    <path
       style="fill:none;stroke:#000000;stroke-width:0.24495655px;stroke-linecap:butt;stroke-linejoin:miter;stroke-opacity:1"
       d="M 53.445833,25.802086 V 9.9270863 l 0.529167,1e-6 V 25.802086 Z"
       id="path4680-0-6-6-8-6"
       inkscape:connector-curvature="0" />
    <path
       style="fill:none;stroke:#000000;stroke-width:0.24495652px;stroke-linecap:butt;stroke-linejoin:miter;stroke-opacity:1"
       d="M 82.020832,87.450009 H 66.145831 l 2e-6,-0.52917 h 15.874999 z"
       id="path4680-0-6-6-87-1"
       inkscape:connector-curvature="0" />
    <path
       style="fill:none;stroke:#000000;stroke-width:0.26458332px;stroke-linecap:butt;stroke-linejoin:miter;stroke-opacity:1"
       d="M 52.916666,3.3125023 H 68.791665 L 64.822916,0.6666704 h 18.520833 l -3.968745,2.6458319 h 15.875 V 11.250003 L 97.895832,7.2812536 V 28.44792 l -2.645828,-3.968751 v 42.333333 l 2.645828,-3.968749 v 21.166666 l -2.645828,-3.96875 v 7.9375 H 52.916666 Z"
       id="path5142-5"
       inkscape:connector-curvature="0"
       sodipodi:nodetypes="ccccccccccccccccc" />
    <path
       style="fill:none;stroke:#000000;stroke-width:0.24495652px;stroke-linecap:butt;stroke-linejoin:miter;stroke-opacity:1"
       d="m 101.07084,81.364588 v -15.875 H 101.6 v 15.875 z"
       id="path4680-0-6-6-2"
       inkscape:connector-curvature="0" />
    <path
       style="fill:none;stroke:#000000;stroke-width:0.24495655px;stroke-linecap:butt;stroke-linejoin:miter;stroke-opacity:1"
       d="M 101.07084,25.802088 V 9.9270878 l 0.52916,2e-6 V 25.802088 Z"
       id="path4680-0-6-6-8-7"
       inkscape:connector-curvature="0" />
    <path
       style="fill:none;stroke:#000000;stroke-width:0.24495652px;stroke-linecap:butt;stroke-linejoin:miter;stroke-opacity:1"
       d="m 129.64583,87.450008 h -15.875 v -0.52917 h 15.875 z"
       id="path4680-0-6-6-87-14"
       inkscape:connector-curvature="0" />
    <path
       style="fill:none;stroke:#000000;stroke-width:0.26458332px;stroke-linecap:butt;stroke-linejoin:miter;stroke-opacity:1"
       d="m 100.54167,3.3125037 h 15.87499 l -3.96874,-2.6458333 h 18.52083 L 127,3.3125037 h 15.875 v 7.9375013 l 2.64583,-3.9687513 V 28.44792 L 142.875,24.479171 v 42.333337 l 2.64583,-3.968755 0,21.166666 -2.64583,-3.968751 v 7.9375 h -42.33333 z"
       id="path5142-3"
       inkscape:connector-curvature="0"
       sodipodi:nodetypes="ccccccccccccccccc" />
    <path
       style="fill:none;stroke:#000000;stroke-width:0.24495652px;stroke-linecap:butt;stroke-linejoin:miter;stroke-opacity:1"
       d="m 11.906255,144.07083 h 15.875 V 144.6 h -15.875 z"
       id="path4680-0-6-6-7"
       inkscape:connector-curvature="0" />
    <path
       style="fill:none;stroke:#000000;stroke-width:0.24495655px;stroke-linecap:butt;stroke-linejoin:miter;stroke-opacity:1"
       d="m 67.468755,144.07083 h 15.874997 v 0.52916 l -15.874997,1e-5 z"
       id="path4680-0-6-6-8-9"
       inkscape:connector-curvature="0" />
    <path
       style="fill:none;stroke:#000000;stroke-width:0.24495652px;stroke-linecap:butt;stroke-linejoin:miter;stroke-opacity:1"
       d="m 5.8208363,172.64583 v -15.875 h 0.52917 v 15.875 z"
       id="path4680-0-6-6-87-8"
       inkscape:connector-curvature="0" />
    <path
       style="fill:none;stroke:#000000;stroke-width:0.26458332px;stroke-linecap:butt;stroke-linejoin:miter;stroke-opacity:1"
       d="m 89.958332,143.54166 v 15.875 l 2.645834,-3.96874 v 18.52083 L 89.958332,170 v 15.875 h -7.9375 l 3.96875,2.64583 -21.166666,0 3.968751,-2.64583 h -42.33333 l 3.968746,2.64583 H 9.2604166 L 13.229167,185.875 H 5.2916773 l -2e-6,-42.33334 z"
       id="path5142-6"
       inkscape:connector-curvature="0"
       sodipodi:nodetypes="ccccccccccccccccc" />
    <path
       style="fill:none;stroke:#000000;stroke-width:0.26458332px;stroke-linecap:butt;stroke-linejoin:miter;stroke-opacity:1"
       d="m 118.18068,143.18876 c 1.76403,2.46957 5.2918,2.46957 7.05556,1.8e-4 1.76376,-2.46939 1.76376,-7.40865 9e-5,-9.87796 -1.76366,-2.46931 -5.29162,-2.46931 -7.05564,1.8e-4 -1.76403,2.4695 -1.76403,7.40802 -1e-5,9.8776 z"
       id="path5226"
       inkscape:connector-curvature="0"
       inkscape:path-effect="#path-effect5228"
       inkscape:original-d="m 116.41666,145.65833 c 3.52805,-2.6e-4 7.05582,-2.6e-4 10.58334,0 2.6e-4,-4.93878 2.6e-4,-9.87804 0,-14.81666 -3.52733,-2.7e-4 -7.05529,-2.7e-4 -10.58334,0 2.7e-4,4.93899 2.7e-4,9.87751 0,14.81666 z" />
    <path
       style="fill:none;stroke:#000000;stroke-width:0.26499999;stroke-linecap:butt;stroke-linejoin:miter;stroke-miterlimit:4;stroke-dasharray:none;stroke-opacity:1"
       d="m 123.33719,148.61835 c 0.54427,0.2193 0.98421,0.51816 1.40432,0.92219 0.41391,0.39806 0.79886,0.90453 1.09105,1.43251 0.4483,0.81007 0.55763,1.38483 0.73326,2.37695 0.12356,0.69803 0.34709,1.72022 0.34276,2.44518 -0.005,0.76015 -0.0778,1.3554 -0.21637,2.08637 -0.091,0.48011 -0.17716,1.24509 -0.3236,1.6911 -0.2349,0.71543 -0.40758,1.07837 -0.77868,1.64895 -0.28596,0.43967 -0.71039,0.9251 -1.07308,1.24176 -0.3871,0.33799 -1.01533,0.76211 -1.4856,0.92206 -0.45213,0.21659 -1.45279,0.28237 -1.74459,0.28112 -0.29179,-0.001 -1.22557,-0.11239 -1.83716,-0.39097 -0.6116,-0.27858 -1.24553,-0.64298 -1.67762,-1.11109 -0.43209,-0.46812 -0.79151,-0.9989 -1.10214,-1.71756 -0.31062,-0.71866 -0.56935,-1.79932 -0.71671,-2.69199 -0.14737,-0.89266 -0.21599,-1.44164 -0.15357,-2.42631 0.0624,-0.98467 0.2599,-2.36892 0.58382,-3.23929 0.32392,-0.87038 0.78009,-1.68721 1.27854,-2.25014 0.49845,-0.56292 1.38265,-1.2208 1.44204,-1.2208 0.0216,0 1.32291,0 1.32291,0 l -1.05833,-1.05834 3.70417,1e-5 -1.05834,1.05833 c 0,0 0.85794,-7.3e-4 1.32292,-7.3e-4 z"
       id="path5270-7"
       inkscape:connector-curvature="0"
       sodipodi:nodetypes="cssssssssczzzzzzzzccccccc" />
    <path
       style="fill:none;stroke:#000000;stroke-width:0.26458332px;stroke-linecap:butt;stroke-linejoin:miter;stroke-opacity:1"
       d="m 120.38542,131.63542 v -0.52917 h 2.64584 v 0.52917 z"
       id="path5329"
       inkscape:connector-curvature="0" />
    <path
       style="fill:none;stroke:#000000;stroke-width:0.26458332px;stroke-linecap:butt;stroke-linejoin:miter;stroke-opacity:1"
       d="M 18.520833,85.597919 H 19.05 V 85.333336 H 34.395833 V 50.937503 l -15.345833,0 V 50.67292 h -0.529167 z"
       id="path5331"
       inkscape:connector-curvature="0"
       sodipodi:nodetypes="ccccccccc" />
    <path
       style="fill:none;stroke:#000000;stroke-width:0.26458332px;stroke-linecap:butt;stroke-linejoin:miter;stroke-opacity:1"
       d="M 97.895831,183.22917 H 113.77083 V 148.83333 H 97.895831 Z"
       id="path5331-6"
       inkscape:connector-curvature="0" />
    <path
       style="fill:none;stroke:#000000;stroke-width:0.26458332px;stroke-linecap:butt;stroke-linejoin:miter;stroke-opacity:1"
       d="m 111.125,164.70833 c 0.44084,-0.4411 0.44084,-1.32305 1.3e-4,-1.76389 -0.44071,-0.44083 -1.32292,-0.44083 -1.76403,1.4e-4 -0.4411,0.44097 -0.4411,1.32265 1.4e-4,1.76375 0.44124,0.44111 1.32292,0.44111 1.76376,0 z"
       id="path849"
       inkscape:connector-curvature="0"
       inkscape:path-effect="#path-effect851"
       inkscape:original-d="m 111.56584,165.14944 c 2.6e-4,-0.88221 2.6e-4,-1.76416 0,-2.64583 -0.88142,-2.7e-4 -1.76363,-2.7e-4 -2.64584,0 2.7e-4,0.88194 2.7e-4,1.76362 0,2.64583 0.88248,-2.7e-4 1.76416,-2.7e-4 2.64584,0 z" />
  </g>
</svg>
