<?xml version="1.0" encoding="UTF-8" standalone="no"?>
<!-- Created with Inkscape (http://www.inkscape.org/) -->

<svg
   xmlns:dc="http://purl.org/dc/elements/1.1/"
   xmlns:cc="http://creativecommons.org/ns#"
   xmlns:rdf="http://www.w3.org/1999/02/22-rdf-syntax-ns#"
   xmlns:svg="http://www.w3.org/2000/svg"
   xmlns="http://www.w3.org/2000/svg"
   xmlns:sodipodi="http://sodipodi.sourceforge.net/DTD/sodipodi-0.dtd"
   xmlns:inkscape="http://www.inkscape.org/namespaces/inkscape"
   width="132mm"
   height="38mm"
   viewBox="0 0 132 38"
   version="1.1"
   id="svg8"
   inkscape:version="0.92.3 (2405546, 2018-03-11)"
   sodipodi:docname="THE ULTIMATE AD.svg">
  <defs
     id="defs2" />
  <sodipodi:namedview
     id="base"
     pagecolor="#ffffff"
     bordercolor="#666666"
     borderopacity="1.0"
     inkscape:pageopacity="0.0"
     inkscape:pageshadow="2"
     inkscape:zoom="0.50000001"
     inkscape:cx="221.9328"
     inkscape:cy="161.85752"
     inkscape:document-units="mm"
     inkscape:current-layer="layer1"
     showgrid="true"
     inkscape:window-width="1920"
     inkscape:window-height="1017"
     inkscape:window-x="-8"
     inkscape:window-y="-8"
     inkscape:window-maximized="1"
     units="mm"
     showguides="true">
    <inkscape:grid
       type="xygrid"
       id="grid954"
       units="mm"
       spacingx="88"
       spacingy="65.5"
       visible="true"
       snapvisiblegridlinesonly="false"
       enabled="false" />
  </sodipodi:namedview>
  <metadata
     id="metadata5">
    <rdf:RDF>
      <cc:Work
         rdf:about="">
        <dc:format>image/svg+xml</dc:format>
        <dc:type
           rdf:resource="http://purl.org/dc/dcmitype/StillImage" />
        <dc:title></dc:title>
      </cc:Work>
    </rdf:RDF>
  </metadata>
  <g
     inkscape:label="Vrstva 1"
     inkscape:groupmode="layer"
     id="layer1"
     transform="translate(0,-259)">
    <g
       id="g952"
       transform="translate(-21.227145,46.563457)">
      <path
         sodipodi:nodetypes="cccscscccssccscc"
         inkscape:connector-curvature="0"
         id="path1424"
         d="m 54.925877,236.54324 c 0,0 0.05071,-15.16323 0,-15.92392 -0.05072,-0.7607 -0.760697,-0.81142 -0.760697,-0.81142 H 22.063747 c -0.659269,0 -0.709985,0.7607 -0.709985,0.7607 v 22.26307 c 0,0.40572 0.862124,0.55785 0.862124,0.55785 l 26.77655,-0.0507 -8.570524,-0.0507 c 0,0 0.101431,1.52139 0.101431,1.97782 0,0.45641 0.304279,1.9271 0.557844,2.58637 0.253567,0.65927 3.220287,1.40729 3.220287,1.40729 l -12.196517,-0.038 c 0,0 2.129954,-0.40571 2.586373,-0.7607 0.456418,-0.355 0.659271,-0.60856 0.760697,-1.1157 0.101426,-0.50713 0.507132,-3.95562 0.507132,-3.95562"
         style="fill:none;stroke:#000000;stroke-width:0.14343849px;stroke-linecap:butt;stroke-linejoin:miter;stroke-opacity:1" />
      <path
         inkscape:connector-curvature="0"
         id="path1426"
         d="M 21.353762,239.38321 H 47.572468"
         style="fill:none;stroke:#000000;stroke-width:0.14343849px;stroke-linecap:butt;stroke-linejoin:miter;stroke-opacity:1" />
      <path
         sodipodi:nodetypes="ccccccccccccccccccccccccc"
         inkscape:connector-curvature="0"
         id="path1438"
         d="m 47.18186,234.94875 -0.519964,0.44825 -0.12551,0.32273 0.14344,0.28687 0.304806,0.1793 h 0.179298 l 0.699262,-0.62754 0.466176,0.51996 0.304807,0.0896 0.268947,-0.10759 0.143439,-0.16136 0.05379,-0.37653 -0.645473,-0.60962 0.555825,-0.53788 0.08965,-0.35861 -0.143437,-0.21515 -0.233088,-0.16137 -0.358596,0.10758 -0.502036,0.53789 -0.573753,-0.53789 -0.430315,-0.0717 -0.304808,0.28688 0.03587,0.32273 0.322738,0.41239 z"
         style="fill:none;stroke:#000000;stroke-width:0.14343849px;stroke-linecap:butt;stroke-linejoin:miter;stroke-opacity:1" />
      <path
         inkscape:connector-curvature="0"
         id="path1440"
         d="m 52.159342,239.77483 0.171574,0.0468 0.187173,-0.0468 0.218366,-0.20277 0.0312,-0.18716 -0.07799,-0.20277 -0.249562,-0.20277 -0.233966,-0.078 -0.218367,0.078 -0.09359,0.10918 -0.07799,0.15598 0.01559,0.21836 0.09359,0.14038 z"
         style="fill:none;stroke:#000000;stroke-width:0.12478124px;stroke-linecap:butt;stroke-linejoin:miter;stroke-opacity:1" />
      <path
         inkscape:connector-curvature="0"
         id="path1442"
         d="m 52.305711,241.14352 0.189092,-0.1103 0.157577,-0.15759 0.09454,-0.17333 v -0.17334 l -0.07878,-0.14182 -0.0595,-0.0557 -0.08078,-0.0724 -0.08079,-0.025 -0.09471,-0.003 h -0.05571 l -0.11421,0.025 -0.08357,0.0557 -0.0975,0.0863 -0.08357,0.0975 -0.06685,0.12536 -0.03065,0.13371 0.02785,0.13927 0.08914,0.15042 0.153208,0.0724 z"
         style="fill:none;stroke:#000000;stroke-width:0.12606144px;stroke-linecap:butt;stroke-linejoin:miter;stroke-opacity:1" />
      <path
         inkscape:connector-curvature="0"
         id="path1444"
         d="m 53.476134,241.09675 -0.115487,-0.11549 -0.09974,-0.10761 -0.03412,-0.0813 -0.021,-0.0918 0.0079,-0.14962 0.06037,-0.12073 0.08924,-0.0997 0.13911,-0.0367 c 0,0 0.160105,-0.005 0.170604,0 0.0105,0.005 0.123361,0.0762 0.123361,0.0762 l 0.12861,0.12599 0.08662,0.13911 0.02362,0.15747 -0.042,0.12074 -0.08924,0.10762 -0.146982,0.0971 -0.149609,0.005 z"
         style="fill:none;stroke:#000000;stroke-width:0.11878016px;stroke-linecap:butt;stroke-linejoin:miter;stroke-opacity:1" />
      <path
         inkscape:connector-curvature="0"
         id="path1446"
         d="m 53.363437,239.81847 -0.119404,-0.10001 -0.08331,-0.14162 -0.01944,-0.16661 0.04998,-0.1444 c 0,0 0.09441,-0.14717 0.111072,-0.15272 0.01666,-0.005 0.161056,-0.10552 0.161056,-0.10552 l 0.177717,-0.0583 0.161056,0.0305 c 0,0 0.147172,0.11385 0.152726,0.12496 0.0056,0.0111 0.06108,0.24158 0.06108,0.24158 l -0.08053,0.20827 -0.16661,0.15549 -0.130511,0.0972 -0.133288,0.0278 z"
         style="fill:none;stroke:#000000;stroke-width:0.1256648px;stroke-linecap:butt;stroke-linejoin:miter;stroke-opacity:1" />
      <path
         sodipodi:nodetypes="ccccccccccccccccccccccc"
         inkscape:connector-curvature="0"
         id="path1448"
         d="m 67.980443,234.93082 c 0.788908,-0.86064 1.004069,-1.00407 1.004069,-1.00407 l 0.358597,-0.78891 0.05378,-0.40342 -0.02689,-0.59169 -0.242051,-0.65443 -0.286874,-0.43033 -0.394453,-0.34962 -0.681338,-0.36756 -0.502034,-0.14344 -0.430315,-0.0627 -0.788913,-0.0269 -1.039924,0.19722 -0.833736,0.40342 -0.546867,0.55583 -0.233084,0.56479 -0.09862,1.0489 0.170336,0.83373 0.573753,0.64547 0.502038,0.3586 0.645472,0.21516 1.147509,0.28688 z"
         style="fill:none;stroke:#000000;stroke-width:0.14343849px;stroke-linecap:butt;stroke-linejoin:miter;stroke-opacity:1" />
      <path
         inkscape:connector-curvature="0"
         id="path1450"
         d="m 66.973421,233.98859 0.576864,0.24406 0.573692,0.2504 0.681458,0.20285 0.903329,0.2916"
         style="fill:none;stroke:#000000;stroke-width:0.14343849px;stroke-linecap:butt;stroke-linejoin:miter;stroke-opacity:1" />
      <path
         inkscape:connector-curvature="0"
         id="path1452"
         d="m 74.739977,230.52905 c 0,0 -0.358591,-0.1793 -0.448243,-0.1793 -0.08965,0 -1.290947,-0.0987 -1.362666,-0.0987 -0.07172,0 -0.995105,0.0717 -1.120614,0.10757 -0.125508,0.0359 -0.636509,0.25103 -0.636509,0.25103 l -0.224122,0.35859 c 0,0 -0.06275,0.32274 -0.06275,0.36755 0,0.0448 0.10758,0.34067 0.10758,0.34067 l 0.277913,0.27791 c 0,0 0.376525,0.1793 0.439276,0.18827 0.06276,0.009 0.58272,0.1793 0.58272,0.1793 l 0.905454,0.23308 0.421354,0.13448 0.511001,0.1524 0.510995,0.31378 0.322741,0.39445 c 0,0 0.107574,0.37652 0.116541,0.41239 0.0089,0.0359 -0.04484,0.32273 -0.04484,0.32273 l -0.322735,0.26895 -0.331703,0.18826 -0.358597,0.13448 c 0,0 -0.322734,0.0717 -0.376525,0.0987 -0.05378,0.0269 -0.448249,0.0448 -0.448249,0.0448 l -0.457211,-0.0269 h -0.519962 l -0.564791,-0.11654 -0.663398,-0.14344 -0.233089,-0.11655"
         style="fill:none;stroke:#000000;stroke-width:0.14343849px;stroke-linecap:butt;stroke-linejoin:miter;stroke-opacity:1" />
      <path
         inkscape:connector-curvature="0"
         id="path1454"
         d="m 76.604681,232.57304 5.343089,-0.009 -0.0717,-0.39446 -0.1793,-0.60064 -0.24206,-0.51997 -0.26894,-0.25102 -0.331705,-0.18826 c 0,0 -0.367564,-0.13447 -0.403421,-0.14344 -0.03583,-0.009 -0.394458,-0.10758 -0.45721,-0.11654 -0.06276,-0.009 -0.45721,-0.0896 -0.502034,-0.0896 -0.04483,0 -0.394459,0 -0.430315,0 -0.03589,0 -0.322741,0.0359 -0.385493,0.0537 -0.06276,0.0179 -0.466177,0.12551 -0.511,0.14344 -0.04484,0.0179 -0.466172,0.19722 -0.466172,0.19722 l -0.340669,0.24206 c 0,0 -0.233089,0.28688 -0.251017,0.32274 -0.01795,0.0359 -0.24205,0.43032 -0.24205,0.43032 l -0.125514,0.29584 -0.125508,0.37653 -0.02689,0.51996 0.04484,0.34963 0.179298,0.43928 c 0,0 0.215156,0.34963 0.233084,0.38549 0.01795,0.0359 0.277912,0.26895 0.322741,0.28687 0.04484,0.0179 0.457211,0.29585 0.502033,0.32274 0.04484,0.0269 0.475139,0.2062 0.475139,0.2062 0,0 0.708228,0.13447 0.753051,0.1524 0.04484,0.0179 0.421354,0.0359 0.493073,0.0359 0.07172,0 0.636509,-0.0179 0.735122,-0.0359 0.09861,-0.0179 0.394454,-0.0896 0.475139,-0.0896 0.08068,0 0.600648,-0.1524 0.600648,-0.1524 l 0.26895,-0.10758"
         style="fill:none;stroke:#000000;stroke-width:0.14343849px;stroke-linecap:butt;stroke-linejoin:miter;stroke-opacity:1" />
      <path
         inkscape:connector-curvature="0"
         id="path1458"
         d="m 83.74971,234.95771 v -3.55011 l 0.13447,-0.47512 c 0,0 0.33171,-0.27793 0.38549,-0.27793 0.0538,0 0.55583,-0.18825 0.60065,-0.20618 0.0448,-0.018 0.52893,-0.0628 0.52893,-0.0628 l 0.57376,-0.0359 h 2.14261"
         style="fill:none;stroke:#000000;stroke-width:0.14343849px;stroke-linecap:butt;stroke-linejoin:miter;stroke-opacity:1" />
      <path
         inkscape:connector-curvature="0"
         id="path1460"
         d="m 83.74971,232.59994 h 4.30315"
         style="fill:none;stroke:#000000;stroke-width:0.14343849px;stroke-linecap:butt;stroke-linejoin:miter;stroke-opacity:1" />
      <path
         inkscape:connector-curvature="0"
         id="path1462"
         d="m 89.02107,230.32286 4.68865,-0.018"
         style="fill:none;stroke:#000000;stroke-width:0.14343849px;stroke-linecap:butt;stroke-linejoin:miter;stroke-opacity:1" />
      <path
         inkscape:connector-curvature="0"
         id="path1464"
         d="m 91.36988,230.287 -0.018,4.67967"
         style="fill:none;stroke:#000000;stroke-width:0.14343849px;stroke-linecap:butt;stroke-linejoin:miter;stroke-opacity:1" />
      <path
         inkscape:connector-curvature="0"
         id="path1466"
         d="m 97.82461,232.82406 c 0.10758,0 2.08883,0 2.08883,0 l 0.0448,1.80195 -0.55583,0.23309 -0.63651,0.0987 -0.52893,0.0717 -0.55582,-0.0448 -0.56479,-0.0717 -0.64547,-0.0987 -0.50204,-0.18826 -0.3317,-0.21516 -0.32273,-0.3048 -0.33171,-0.46618 -0.24205,-0.50203 -0.12551,-0.66341 0.13448,-0.59168 c 0,0 0.21515,-0.52893 0.26894,-0.57375 0.0538,-0.0448 0.58272,-0.48411 0.58272,-0.48411 l 0.75306,-0.36756 0.67236,-0.1524 0.56479,-0.0448 h 0.68134 0.41238 l 0.60065,0.14344 0.57375,0.26895"
         style="fill:none;stroke:#000000;stroke-width:0.14343849px;stroke-linecap:butt;stroke-linejoin:miter;stroke-opacity:1" />
      <path
         inkscape:connector-curvature="0"
         id="path1468"
         d="m 101.9395,230.60077 0.46618,-0.17034 0.77098,-0.11653 0.68133,-0.0717 0.77995,0.0807 0.50203,0.0628 0.55583,0.22412 0.34963,0.29584 0.17033,0.36756 0.16137,0.51996 v 0.49307 l -0.0358,2.61775"
         style="fill:none;stroke:#000000;stroke-width:0.14343849px;stroke-linecap:butt;stroke-linejoin:miter;stroke-opacity:1" />
      <path
         inkscape:connector-curvature="0"
         id="path1470"
         d="m 106.3592,234.13294 -0.41238,0.28687 -0.37653,0.15242 -0.34963,0.17032 c 0,0 -0.41238,0.0628 -0.49307,0.0896 -0.0807,0.0269 -0.44825,0.0538 -0.44825,0.0538 l -0.88752,0.0896 -0.58272,-0.0448 -0.511,-0.0717 -0.46618,-0.22412 -0.20619,-0.25998 -0.16136,-0.34067 v -0.36757 l 0.0897,-0.34963 0.22412,-0.26894 0.47514,-0.21516 0.67237,-0.22412 1.05786,-0.19723 0.86063,-0.11654 0.8427,-0.0269 0.68133,-0.0448"
         style="fill:none;stroke:#000000;stroke-width:0.14343849px;stroke-linecap:butt;stroke-linejoin:miter;stroke-opacity:1" />
      <path
         inkscape:connector-curvature="0"
         id="path1472"
         d="m 108.43009,230.29596 -0.0179,4.66175"
         style="fill:none;stroke:#000000;stroke-width:0.14343849px;stroke-linecap:butt;stroke-linejoin:miter;stroke-opacity:1" />
      <path
         inkscape:connector-curvature="0"
         id="path1474"
         d="m 108.43009,231.24624 0.43929,-0.35859 c 0,0 0.34066,-0.26895 0.41238,-0.29584 0.0717,-0.0269 0.50204,-0.29585 0.54686,-0.29585 0.0448,0 0.60065,-0.10758 0.6634,-0.10758 0.0628,0 0.72616,0.16137 0.72616,0.16137 l 0.6903,0.64547 0.0358,0.29585 0.009,3.65768"
         style="fill:none;stroke:#000000;stroke-width:0.14343849px;stroke-linecap:butt;stroke-linejoin:miter;stroke-opacity:1" />
      <path
         inkscape:connector-curvature="0"
         id="path1476"
         d="m 111.94431,231.29107 0.4662,-0.43929 0.59169,-0.35859 0.51996,-0.20619 0.55582,-0.10758 0.50204,0.0896 0.49307,0.23308 0.34963,0.44825 0.1793,0.53789 -0.0179,3.45149"
         style="fill:none;stroke:#000000;stroke-width:0.14343849px;stroke-linecap:butt;stroke-linejoin:miter;stroke-opacity:1" />
      <path
         inkscape:connector-curvature="0"
         id="path1478"
         d="m 117.38604,232.56408 h 5.2355 l -0.0448,-0.61858 -0.23309,-0.51996 -0.34963,-0.52893 -0.43031,-0.31378 -0.59169,-0.21515 -0.58272,-0.11654 -0.73512,0.0179 -0.67236,0.12551 -0.52894,0.25998 -0.51099,0.511 -0.43032,0.57375 -0.14344,0.49307 -0.009,0.57376 0.1793,0.81581 0.32273,0.50203 0.3586,0.26894 0.38549,0.25999 0.74409,0.20618 0.70822,0.12551 c 0,0 0.70823,-0.0359 0.76202,-0.0359 0.0538,0 0.70823,-0.0717 0.70823,-0.0717 l 0.82477,-0.24206"
         style="fill:none;stroke:#000000;stroke-width:0.14343849px;stroke-linecap:butt;stroke-linejoin:miter;stroke-opacity:1" />
      <path
         inkscape:connector-curvature="0"
         id="path1480"
         d="m 128.09014,230.54698 -0.50204,-0.1524 -0.9951,-0.16137 -0.95925,0.0269 -0.91442,0.18826 -0.3317,0.32273 -0.16137,0.45722 0.0538,0.36755 0.20619,0.18827 0.40342,0.25102 c 0,0 0.47514,0.18826 0.511,0.20619 0.0358,0.0179 0.66341,0.21516 0.66341,0.21516 l 0.63651,0.17033 0.66339,0.22413 0.50205,0.25101 c 0,0 0.23308,0.1524 0.26894,0.20619 0.0358,0.0538 0.2062,0.3855 0.2062,0.3855 0,0 0.0717,0.34963 0.0717,0.38548 0,0.0359 -0.0807,0.2331 -0.0807,0.2331 l -0.35859,0.24204 c 0,0 -0.21516,0.16138 -0.25102,0.17034 -0.0358,0.009 -0.64548,0.0987 -0.64548,0.0987 l -1.09372,0.0717 -0.8427,0.0179 -0.51996,-0.0896 -0.45721,-0.17033"
         style="fill:none;stroke:#000000;stroke-width:0.14343849px;stroke-linecap:butt;stroke-linejoin:miter;stroke-opacity:1" />
      <path
         inkscape:connector-curvature="0"
         id="path1482"
         d="m 63.299891,240.6764 1.407287,-3.37244 1.451666,3.36609"
         style="fill:none;stroke:#000000;stroke-width:0.14343849px;stroke-linecap:butt;stroke-linejoin:miter;stroke-opacity:1" />
      <path
         inkscape:connector-curvature="0"
         id="path1484"
         d="m 63.781665,239.54169 1.895405,0.006"
         style="fill:none;stroke:#000000;stroke-width:0.14343849px;stroke-linecap:butt;stroke-linejoin:miter;stroke-opacity:1" />
      <path
         inkscape:connector-curvature="0"
         id="path1486"
         d="m 69.391808,237.29128 0.0063,3.3661 1.470685,0.006"
         style="fill:none;stroke:#000000;stroke-width:0.14343849px;stroke-linecap:butt;stroke-linejoin:miter;stroke-opacity:1" />
      <path
         inkscape:connector-curvature="0"
         id="path1488"
         d="m 74.089113,240.68273 -0.01903,-3.4168 0.97623,0.019 0.272582,0.10147 0.215535,0.12677 0.126782,0.15848 0.133121,0.22187 0.02537,0.15848 0.01269,0.25358 -0.038,0.21553 -0.09509,0.20919 -0.126782,0.20285 -0.126783,0.0951 -0.152138,0.0824 -0.190179,0.0634 -0.272583,0.0317 -0.754357,-0.019"
         style="fill:none;stroke:#000000;stroke-width:0.14343849px;stroke-linecap:butt;stroke-linejoin:miter;stroke-opacity:1" />
      <path
         inkscape:connector-curvature="0"
         id="path1490"
         d="m 79.198464,240.66371 0.02538,-3.3851"
         style="fill:none;stroke:#000000;stroke-width:0.14343849px;stroke-linecap:butt;stroke-linejoin:miter;stroke-opacity:1" />
      <path
         inkscape:connector-curvature="0"
         id="path1492"
         d="m 79.236499,238.88241 2.351821,-0.006"
         style="fill:none;stroke:#000000;stroke-width:0.14343849px;stroke-linecap:butt;stroke-linejoin:miter;stroke-opacity:1" />
      <path
         inkscape:connector-curvature="0"
         id="path1494"
         d="m 81.62002,240.68906 -0.006,-3.42313"
         style="fill:none;stroke:#000000;stroke-width:0.14343849px;stroke-linecap:butt;stroke-linejoin:miter;stroke-opacity:1" />
      <path
         inkscape:connector-curvature="0"
         id="path1496"
         d="m 84.84664,240.70175 1.43265,-3.39779 1.43265,3.36609"
         style="fill:none;stroke:#000000;stroke-width:0.14343849px;stroke-linecap:butt;stroke-linejoin:miter;stroke-opacity:1" />
      <path
         inkscape:connector-curvature="0"
         id="path1498"
         d="m 85.36012,239.54803 1.8637,0.0127"
         style="fill:none;stroke:#000000;stroke-width:0.14343849px;stroke-linecap:butt;stroke-linejoin:miter;stroke-opacity:1" />
      <path
         inkscape:connector-curvature="0"
         id="path1500"
         d="m 94.62795,237.26593 1.43898,3.39778 1.43265,-3.39778"
         style="fill:none;stroke:#000000;stroke-width:0.14343849px;stroke-linecap:butt;stroke-linejoin:miter;stroke-opacity:1" />
      <path
         inkscape:connector-curvature="0"
         id="path1502"
         d="m 102.41876,237.30396 -1.66086,-0.019 -0.0317,3.39779 1.6672,0.006"
         style="fill:none;stroke:#000000;stroke-width:0.14343849px;stroke-linecap:butt;stroke-linejoin:miter;stroke-opacity:1" />
      <path
         inkscape:connector-curvature="0"
         id="path1504"
         d="m 100.7579,238.85071 1.57845,0.006"
         style="fill:none;stroke:#000000;stroke-width:0.14343849px;stroke-linecap:butt;stroke-linejoin:miter;stroke-opacity:1" />
      <path
         inkscape:connector-curvature="0"
         id="path1506"
         d="m 105.94332,240.70175 0.006,-3.4168 0.81775,0.019 0.2916,0.0571 0.22821,0.0824 0.1775,0.15215 0.18384,0.22186 0.0824,0.24723 -0.006,0.41838 -0.0951,0.2092 -0.11411,0.16481 -0.19651,0.15848 -0.24089,0.13313 -0.31696,0.0126 -0.80507,0.0127"
         style="fill:none;stroke:#000000;stroke-width:0.14343849px;stroke-linecap:butt;stroke-linejoin:miter;stroke-opacity:1" />
      <path
         inkscape:connector-curvature="0"
         id="path1508"
         d="m 106.58992,239.21205 1.17907,1.47701"
         style="fill:none;stroke:#000000;stroke-width:0.14343849px;stroke-linecap:butt;stroke-linejoin:miter;stroke-opacity:1" />
      <path
         inkscape:connector-curvature="0"
         id="path1510"
         d="m 112.70085,237.93155 -0.16482,-0.29795 -0.20285,-0.20919 -0.17749,-0.12679 -0.23456,-0.0381 h -0.23454 l -0.22187,0.0507 -0.21554,0.13945 -0.15213,0.12679 -0.0887,0.16482 -0.038,0.18384 v 0.19651 l 0.0317,0.1458 0.12044,0.17749 0.15214,0.13312 0.25357,0.12045 0.27258,0.14579 0.27258,0.12045 0.24723,0.17116 0.28527,0.3233 0.0697,0.2599 0.019,0.32964 -0.0887,0.22821 -0.15215,0.21553 -0.23455,0.12677 -0.22187,0.0887 -0.2916,0.006 -0.2599,-0.0824 -0.21553,-0.10777 -0.13312,-0.1775 -0.15214,-0.19016 -0.18384,-0.36134"
         style="fill:none;stroke:#000000;stroke-width:0.14343849px;stroke-linecap:butt;stroke-linejoin:miter;stroke-opacity:1" />
      <path
         inkscape:connector-curvature="0"
         id="path1512"
         d="m 116.11765,237.27861 -0.006,3.41045"
         style="fill:none;stroke:#000000;stroke-width:0.14343849px;stroke-linecap:butt;stroke-linejoin:miter;stroke-opacity:1" />
      <path
         inkscape:connector-curvature="0"
         id="path1514"
         d="m 121.16361,237.25959 -0.26625,-0.0127 -0.29793,0.0887 -0.30428,0.12678 -0.17116,0.10146 -0.15214,0.15215 -0.15848,0.17749 -0.1458,0.22821 -0.1141,0.31062 -0.0761,0.36134 0.0127,0.38668 0.0761,0.50079 0.12678,0.22821 0.17749,0.26625 0.19018,0.1775 0.21553,0.1458 0.31062,0.13311 0.34865,0.0951 0.27893,0.006 0.39302,-0.0887 0.24723,-0.1141 0.20919,-0.1458 0.20919,-0.19651 0.19018,-0.21553 0.12044,-0.1775 0.0824,-0.26624 0.0444,-0.29161 0.019,-0.29159 -0.006,-0.26625 -0.0571,-0.21553 -0.12678,-0.33597 -0.12678,-0.20919 -0.2092,-0.2409 -0.19651,-0.13945 -0.21553,-0.13947 -0.27258,-0.0824 z"
         style="fill:none;stroke:#000000;stroke-width:0.14343849px;stroke-linecap:butt;stroke-linejoin:miter;stroke-opacity:1" />
      <path
         inkscape:connector-curvature="0"
         id="path1516"
         d="m 125.89895,240.6764 -0.006,-3.3661 2.71316,3.34074 v -3.39779"
         style="fill:none;stroke:#000000;stroke-width:0.14343849px;stroke-linecap:butt;stroke-linejoin:miter;stroke-opacity:1" />
      <path
         inkscape:connector-curvature="0"
         id="path1518"
         d="m 47.775321,232.28337 -5.908084,3.01742 -0.5832,0.68464 -0.101432,0.63391 0.202853,0.48177 0.456418,0.32964 0.988907,0.10146 3.11886,-0.10146 0.380349,0.4057 0.507131,0.22821 0.507132,0.0253 0.633913,-0.12677 2.053886,1.87638 -0.15214,0.53249 -0.07607,0.53248 0.253565,0.48178 0.329636,0.38035 0.177497,0.27892 -0.253566,3.06815 0.228208,0.91284 0.431062,0.55784 0.557845,0.22821 0.583203,-0.0507 0.65927,-0.5832 2.966719,-5.52774 -0.05071,-1.01426 -0.278921,-0.88748 -0.53249,-0.70999 -0.456418,-0.32964 -0.608559,-0.20285 -0.811409,-0.17749 -2.256737,-2.33281 -0.152139,-1.01426 -0.456418,-0.70998 -0.836767,-0.73534 -0.938195,-0.25357 z"
         style="fill:none;stroke:#000000;stroke-width:0.14343849px;stroke-linecap:butt;stroke-linejoin:miter;stroke-opacity:1" />
      <path
         sodipodi:nodetypes="cccccccccccccccccccc"
         inkscape:connector-curvature="0"
         id="path1520"
         d="m 134.34269,218.03297 h 18.76388 v 30.73217 l -0.355,0.70999 -0.45642,0.4057 -0.70997,0.355 -0.91284,0.0507 -14.30111,0.0507 -0.45642,-0.15214 -0.50714,-0.20285 -0.60855,-0.45642 -0.355,-0.70999 -0.20285,-0.45641 v -25.103 l -0.15214,-0.0507 -0.19017,-0.16482 -0.0634,-2.32012 0.13309,-0.22187 0.29794,-0.10777 z"
         style="fill:none;stroke:#000000;stroke-width:0.14343849px;stroke-linecap:butt;stroke-linejoin:miter;stroke-opacity:1" />
      <path
         inkscape:connector-curvature="0"
         id="path1522"
         d="m 143.75183,245.61698 -0.3855,0.0359 -0.43031,0.15241 -0.34067,0.24205 -0.3048,0.34963 -0.20619,0.53789 -0.0358,0.45722 0.0628,0.37652 0.2062,0.39446 0.23308,0.28687 0.32274,0.21516 0.43928,0.21517 0.35859,0.0358 0.39446,-0.0537 0.39446,-0.10757 0.38548,-0.25999 0.31378,-0.35859 0.1524,-0.40343 0.0717,-0.47514 -0.0358,-0.41238 -0.14343,-0.33171 -0.25102,-0.35859 -0.31378,-0.25102 -0.25997,-0.14344 -0.32274,-0.0987 z"
         style="fill:none;stroke:#000000;stroke-width:0.14343849px;stroke-linecap:butt;stroke-linejoin:miter;stroke-opacity:1" />
      <path
         inkscape:connector-curvature="0"
         id="path1583"
         d="m 134.33868,217.28788 -0.0717,-2.5281 0.14344,-0.69926 0.57375,-0.8427 1.05786,-0.55583 1.73919,-0.0359 h 13.26806 l 0.77098,0.16137 0.5379,0.37653 0.46618,0.51996 c 0,0 0.26894,0.55583 0.26894,0.62755 0,0.0717 0.0537,3.0122 0.0537,3.0122 z"
         style="fill:none;stroke:#000000;stroke-width:0.14343849px;stroke-linecap:butt;stroke-linejoin:miter;stroke-opacity:1" />
      <path
         inkscape:connector-curvature="0"
         id="path1585"
         d="m 146.10063,215.36939 -4.73347,0.0359 -0.23308,-0.16136 -0.14344,-0.25102 0.10757,-0.28688 0.21516,-0.12551 4.82313,-0.0179 0.23308,0.12551 0.10757,0.21516 -0.0537,0.28688 -0.12551,0.0897 z"
         style="fill:none;stroke:#000000;stroke-width:0.14343849px;stroke-linecap:butt;stroke-linejoin:miter;stroke-opacity:1" />
      <path
         sodipodi:nodetypes="ccccccccccccccccccccccccc"
         inkscape:connector-curvature="0"
         id="path1438-4"
         d="m 142.36556,228.77621 -0.40785,0.3516 -0.0985,0.25316 0.11252,0.22503 0.23909,0.14064 h 0.14063 l 0.54851,-0.49225 0.36567,0.40786 0.23909,0.0703 0.21097,-0.0844 0.11251,-0.12657 0.0422,-0.29535 -0.50631,-0.47819 0.43599,-0.42192 0.0703,-0.28129 -0.11251,-0.16877 -0.18284,-0.12657 -0.28128,0.0844 -0.3938,0.42192 -0.45006,-0.42192 -0.33754,-0.0563 -0.23909,0.22502 0.0281,0.25316 0.25316,0.32347 z"
         style="fill:none;stroke:#000000;stroke-width:0.11251355px;stroke-linecap:butt;stroke-linejoin:miter;stroke-opacity:1" />
      <path
         inkscape:connector-curvature="0"
         id="path1440-98"
         d="m 146.26991,232.56181 0.13458,0.0367 0.14682,-0.0367 0.17129,-0.15905 0.0245,-0.14682 -0.0612,-0.15905 -0.19577,-0.15906 -0.18352,-0.0612 -0.17129,0.0612 -0.0734,0.0856 -0.0612,0.12235 0.0122,0.17128 0.0735,0.11012 z"
         style="fill:none;stroke:#000000;stroke-width:0.09787875px;stroke-linecap:butt;stroke-linejoin:miter;stroke-opacity:1" />
      <path
         inkscape:connector-curvature="0"
         id="path1442-1"
         d="m 146.38473,233.6354 0.14832,-0.0865 0.1236,-0.1236 0.0742,-0.13597 v -0.13596 l -0.0618,-0.11125 -0.0467,-0.0438 -0.0634,-0.0569 -0.0634,-0.0196 -0.0743,-0.002 h -0.0437 l -0.0896,0.0197 -0.0656,0.0437 -0.0765,0.0677 -0.0656,0.0765 -0.0524,0.0983 -0.0241,0.10489 0.0219,0.10924 0.0699,0.118 0.12016,0.0568 z"
         style="fill:none;stroke:#000000;stroke-width:0.09888296px;stroke-linecap:butt;stroke-linejoin:miter;stroke-opacity:1" />
      <path
         inkscape:connector-curvature="0"
         id="path1444-37"
         d="m 147.30281,233.59872 -0.0906,-0.0906 -0.0782,-0.0845 -0.0268,-0.0638 -0.0165,-0.0721 0.006,-0.11735 0.0473,-0.0947 0.07,-0.0782 0.10912,-0.0288 c 0,0 0.12557,-0.004 0.13382,0 0.008,0.004 0.0968,0.0598 0.0968,0.0598 l 0.10084,0.0989 0.0679,0.10912 0.0186,0.12353 -0.033,0.0947 -0.07,0.0844 -0.11529,0.0761 -0.11737,0.004 z"
         style="fill:none;stroke:#000000;stroke-width:0.09317149px;stroke-linecap:butt;stroke-linejoin:miter;stroke-opacity:1" />
      <path
         inkscape:connector-curvature="0"
         id="path1446-06"
         d="m 147.21441,232.59603 -0.0937,-0.0784 -0.0653,-0.11109 -0.0153,-0.13069 0.0392,-0.11325 c 0,0 0.0741,-0.11545 0.0872,-0.11981 0.0131,-0.004 0.12632,-0.0828 0.12632,-0.0828 l 0.13941,-0.0457 0.12633,0.024 c 0,0 0.11544,0.0893 0.11979,0.098 0.004,0.008 0.0479,0.1895 0.0479,0.1895 l -0.0632,0.16336 -0.13069,0.12198 -0.10239,0.0763 -0.10456,0.0218 z"
         style="fill:none;stroke:#000000;stroke-width:0.09857182px;stroke-linecap:butt;stroke-linejoin:miter;stroke-opacity:1" />
      <path
         inkscape:connector-curvature="0"
         id="path1518-7"
         d="m 142.83107,226.68547 -4.63432,2.36689 -0.45746,0.53702 -0.0796,0.49725 0.15911,0.3779 0.35801,0.25857 0.7757,0.0796 2.44645,-0.0796 0.29835,0.31823 0.3978,0.17902 0.39779,0.0199 0.49724,-0.0995 1.61107,1.47185 -0.11934,0.41769 -0.0597,0.41769 0.1989,0.3779 0.25856,0.29835 0.13923,0.21878 -0.1989,2.40667 0.17901,0.71603 0.33812,0.43757 0.43758,0.17901 0.45747,-0.0397 0.51713,-0.45747 2.3271,-4.33596 -0.0397,-0.7956 -0.2188,-0.69614 -0.41768,-0.55691 -0.35801,-0.25857 -0.47736,-0.15912 -0.63648,-0.13922 -1.77019,-1.82987 -0.11933,-0.79559 -0.35802,-0.55691 -0.65636,-0.5768 -0.73592,-0.1989 z"
         style="fill:none;stroke:#000000;stroke-width:0.11251355px;stroke-linecap:butt;stroke-linejoin:miter;stroke-opacity:1" />
    </g>
    <g
       id="g894"
       transform="matrix(0.19232856,0,0,0.19232856,36.330141,210.38376)">
      <g
         transform="matrix(0.26458333,0,0,0.26458333,88.662936,246.89696)"
         id="g874">
        <path
           style="fill:none;stroke:#000000"
           inkscape:connector-curvature="0"
           class="st14"
           d="m 120,76.1 c 0,-3.1 -0.3,-6.3 -0.8,-9.3 H 75.9 v 17.7 h 24.8 c -1,5.7 -4.3,10.7 -9.2,13.9 l 14.8,11.5 C 115,101.8 120,90 120,76.1 Z"
           id="path866" />
        <path
           style="fill:none;stroke:#000000"
           inkscape:connector-curvature="0"
           class="st15"
           d="m 75.9,120.9 c 12.4,0 22.8,-4.1 30.4,-11.1 L 91.5,98.4 c -4.1,2.8 -9.4,4.4 -15.6,4.4 -12,0 -22.1,-8.1 -25.8,-18.9 L 34.9,95.6 c 7.8,15.5 23.6,25.3 41,25.3 z"
           id="path868" />
        <path
           style="fill:none;stroke:#000000"
           inkscape:connector-curvature="0"
           class="st12"
           d="m 50.1,83.8 c -1.9,-5.7 -1.9,-11.9 0,-17.6 L 34.9,54.4 c -6.5,13 -6.5,28.3 0,41.2 z"
           id="path870" />
        <path
           style="fill:none;stroke:#000000"
           inkscape:connector-curvature="0"
           class="st13"
           d="m 75.9,47.3 c 6.5,-0.1 12.9,2.4 17.6,6.9 L 106.6,41 C 98.3,33.2 87.3,29 75.9,29.1 c -17.4,0 -33.2,9.8 -41,25.3 L 50.1,66.2 C 53.8,55.3 63.9,47.3 75.9,47.3 Z"
           id="path872" />
      </g>
    </g>
    <text
       xml:space="preserve"
       style="font-style:normal;font-weight:normal;font-size:2.2927227px;line-height:1.25;font-family:sans-serif;letter-spacing:0px;word-spacing:0px;fill:#000000;fill-opacity:1;stroke:none;stroke-width:0.05731806"
       x="59.732021"
       y="270.66299"
       id="text898"
       transform="scale(0.91489784,1.0930182)"><tspan
         sodipodi:role="line"
         id="tspan896"
         x="59.732021"
         y="270.66299"
         style="font-style:normal;font-variant:normal;font-weight:normal;font-stretch:normal;font-family:'Starliner BTN';-inkscape-font-specification:'Starliner BTN';stroke-width:0.05731806">qgames.zyrosite.com</tspan></text>
    <text
       xml:space="preserve"
       style="font-style:normal;font-weight:normal;font-size:2.29272246px;line-height:1.25;font-family:sans-serif;letter-spacing:0px;word-spacing:0px;fill:#000000;fill-opacity:1;stroke:none;stroke-width:0.05731806"
       x="67.604889"
       y="239.71896"
       id="text898-4"
       transform="scale(0.91489785,1.0930182)"><tspan
         sodipodi:role="line"
         id="tspan896-1"
         x="67.604889"
         y="239.71896"
         style="font-style:normal;font-variant:normal;font-weight:normal;font-stretch:normal;font-family:'Starliner BTN';-inkscape-font-specification:'Starliner BTN';stroke-width:0.05731806">qgames    zyro</tspan></text>
  </g>
  <style
     id="style864"
     type="text/css">
	.st0{fill:#1A73E8;}
	.st1{fill:#EA4335;}
	.st2{fill:#4285F4;}
	.st3{fill:#FBBC04;}
	.st4{fill:#34A853;}
	.st5{fill:#4CAF50;}
	.st6{fill:#1E88E5;}
	.st7{fill:#E53935;}
	.st8{fill:#C62828;}
	.st9{fill:#FBC02D;}
	.st10{fill:#1565C0;}
	.st11{fill:#2E7D32;}
	.st12{fill:#F6B704;}
	.st13{fill:#E54335;}
	.st14{fill:#4280EF;}
	.st15{fill:#34A353;}
	.st16{clip-path:url(#SVGID_2_);}
	.st17{fill:#188038;}
	.st18{opacity:0.2;fill:#FFFFFF;enable-background:new    ;}
	.st19{opacity:0.3;fill:#0D652D;enable-background:new    ;}
	.st20{clip-path:url(#SVGID_4_);}
	.st21{opacity:0.3;fill:url(#_45_shadow_1_);enable-background:new    ;}
	.st22{clip-path:url(#SVGID_6_);}
	.st23{fill:#FA7B17;}
	.st24{opacity:0.3;fill:#174EA6;enable-background:new    ;}
	.st25{opacity:0.3;fill:#A50E0E;enable-background:new    ;}
	.st26{opacity:0.3;fill:#E37400;enable-background:new    ;}
	.st27{fill:url(#Finish_mask_1_);}
	.st28{fill:#FFFFFF;}
	.st29{fill:#0C9D58;}
	.st30{opacity:0.2;fill:#004D40;enable-background:new    ;}
	.st31{opacity:0.2;fill:#3E2723;enable-background:new    ;}
	.st32{fill:#FFC107;}
	.st33{opacity:0.2;fill:#1A237E;enable-background:new    ;}
	.st34{opacity:0.2;}
	.st35{fill:#1A237E;}
	.st36{fill:url(#SVGID_7_);}
	.st37{fill:#FBBC05;}
	.st38{clip-path:url(#SVGID_9_);fill:#E53935;}
	.st39{clip-path:url(#SVGID_11_);fill:#FBC02D;}
	.st40{clip-path:url(#SVGID_13_);fill:#E53935;}
	.st41{clip-path:url(#SVGID_15_);fill:#FBC02D;}
</style>
</svg>
