<?xml version="1.0" encoding="UTF-8" standalone="no"?>
<!-- Created with Inkscape (http://www.inkscape.org/) -->

<svg
   xmlns:dc="http://purl.org/dc/elements/1.1/"
   xmlns:cc="http://creativecommons.org/ns#"
   xmlns:rdf="http://www.w3.org/1999/02/22-rdf-syntax-ns#"
   xmlns:svg="http://www.w3.org/2000/svg"
   xmlns="http://www.w3.org/2000/svg"
   xmlns:sodipodi="http://sodipodi.sourceforge.net/DTD/sodipodi-0.dtd"
   xmlns:inkscape="http://www.inkscape.org/namespaces/inkscape"
   width="258mm"
   height="15mm"
   viewBox="0 0 258 15"
   version="1.1"
   id="svg8"
   inkscape:version="0.92.3 (2405546, 2018-03-11)"
   sodipodi:docname="THE ULTIMATE AD.svg">
  <defs
     id="defs2" />
  <sodipodi:namedview
     id="base"
     pagecolor="#ffffff"
     bordercolor="#666666"
     borderopacity="1.0"
     inkscape:pageopacity="0.0"
     inkscape:pageshadow="2"
     inkscape:zoom="4.0000001"
     inkscape:cx="160.38816"
     inkscape:cy="80.522237"
     inkscape:document-units="mm"
     inkscape:current-layer="layer1"
     showgrid="true"
     inkscape:window-width="1920"
     inkscape:window-height="1017"
     inkscape:window-x="-8"
     inkscape:window-y="-8"
     inkscape:window-maximized="1"
     units="mm"
     showguides="true">
    <inkscape:grid
       type="xygrid"
       id="grid954"
       units="mm"
       spacingx="88"
       spacingy="65.5"
       visible="true"
       snapvisiblegridlinesonly="false"
       enabled="false" />
  </sodipodi:namedview>
  <metadata
     id="metadata5">
    <rdf:RDF>
      <cc:Work
         rdf:about="">
        <dc:format>image/svg+xml</dc:format>
        <dc:type
           rdf:resource="http://purl.org/dc/dcmitype/StillImage" />
        <dc:title></dc:title>
      </cc:Work>
    </rdf:RDF>
  </metadata>
  <g
     inkscape:label="Vrstva 1"
     inkscape:groupmode="layer"
     id="layer1"
     transform="translate(0,-282)">
    <path
       style="fill:none;stroke:#000000;stroke-width:0.2;stroke-linecap:butt;stroke-linejoin:miter;stroke-opacity:1;stroke-miterlimit:4;stroke-dasharray:none"
       d="m 15.16845,290.62493 c 0,0 0.0209,-6.24864 0,-6.56211 -0.0209,-0.31348 -0.313476,-0.33438 -0.313476,-0.33438 H 1.6262648 c -0.2716787,0 -0.2925787,0.31348 -0.2925787,0.31348 v 9.17441 c 0,0.1672 0.3552737,0.22989 0.3552737,0.22989 l 11.0343722,-0.0209 -3.5318354,-0.0209 c 0,0 0.0418,0.62695 0.0418,0.81504 0,0.18808 0.125391,0.79414 0.229883,1.06582 0.1044927,0.27168 1.3270514,0.57993 1.3270514,0.57993 l -5.0260733,-0.0157 c 0,0 0.8777344,-0.16718 1.0658201,-0.31347 0.188086,-0.1463 0.27168,-0.25079 0.313476,-0.45977 0.0418,-0.20899 0.208985,-1.63008 0.208985,-1.63008"
       id="path1424"
       inkscape:connector-curvature="0"
       sodipodi:nodetypes="cccscscccssccscc" />
    <path
       style="fill:none;stroke:#000000;stroke-width:0.2;stroke-linecap:butt;stroke-linejoin:miter;stroke-opacity:1;stroke-miterlimit:4;stroke-dasharray:none"
       d="M 1.3336861,291.79525 H 12.138176"
       id="path1426"
       inkscape:connector-curvature="0" />
    <path
       style="fill:none;stroke:#000000;stroke-width:0.2;stroke-linecap:butt;stroke-linejoin:miter;stroke-opacity:1;stroke-miterlimit:4;stroke-dasharray:none"
       d="m 11.97721,289.96785 -0.214273,0.18472 -0.05172,0.13299 0.05911,0.11822 0.125608,0.0739 h 0.07389 l 0.28816,-0.2586 0.192107,0.21427 0.125608,0.0369 0.110831,-0.0443 0.05911,-0.0665 0.02217,-0.15517 -0.265994,-0.25122 0.229051,-0.22165 0.03694,-0.14778 -0.05911,-0.0887 -0.09605,-0.0665 -0.147774,0.0443 -0.206885,0.22166 -0.236438,-0.22166 -0.177329,-0.0295 -0.125609,0.11822 0.01478,0.133 0.132997,0.16994 z"
       id="path1438"
       inkscape:connector-curvature="0"
       sodipodi:nodetypes="ccccccccccccccccccccccccc" />
    <path
       style="fill:none;stroke:#000000;stroke-width:0.2;stroke-linecap:butt;stroke-linejoin:miter;stroke-miterlimit:4;stroke-dasharray:none;stroke-opacity:1"
       d="m 13.90561,291.90986 0.0707,0.0193 0.07713,-0.0193 0.08999,-0.0836 0.01286,-0.0771 -0.03214,-0.0836 -0.102842,-0.0836 -0.09642,-0.0321 -0.08999,0.0321 -0.03857,0.045 -0.03214,0.0643 0.0064,0.09 0.03857,0.0578 z"
       id="path1440"
       inkscape:connector-curvature="0" />
    <path
       style="fill:none;stroke:#000000;stroke-width:0.2;stroke-linecap:butt;stroke-linejoin:miter;stroke-miterlimit:4;stroke-dasharray:none;stroke-opacity:1"
       d="m 14.006852,292.60251 0.07792,-0.0455 0.06494,-0.065 0.03896,-0.0714 v -0.0714 l -0.03246,-0.0584 -0.02452,-0.0229 -0.03329,-0.0298 -0.03329,-0.0103 -0.03903,-10e-4 h -0.02296 l -0.04707,0.0103 -0.03444,0.0229 -0.04018,0.0356 -0.03444,0.0402 -0.02755,0.0517 -0.01263,0.0551 0.01148,0.0574 0.03673,0.062 0.06314,0.0298 z"
       id="path1442"
       inkscape:connector-curvature="0" />
    <path
       style="fill:none;stroke:#000000;stroke-width:0.2;stroke-linecap:butt;stroke-linejoin:miter;stroke-miterlimit:4;stroke-dasharray:none;stroke-opacity:1"
       d="m 14.61195,292.53355 -0.04759,-0.0476 -0.0411,-0.0443 -0.01406,-0.0335 -0.0087,-0.0378 0.0033,-0.0617 0.02488,-0.0497 0.03677,-0.0411 0.05733,-0.0151 c 0,0 0.06598,-0.002 0.0703,0 0.0043,0.002 0.05084,0.0314 0.05084,0.0314 l 0.053,0.0519 0.0357,0.0573 0.0097,0.0649 -0.01731,0.0498 -0.03677,0.0444 -0.06057,0.04 -0.06165,0.002 z"
       id="path1444"
       inkscape:connector-curvature="0" />
    <path
       style="fill:none;stroke:#000000;stroke-width:0.2;stroke-linecap:butt;stroke-linejoin:miter;stroke-miterlimit:4;stroke-dasharray:none;stroke-opacity:1"
       d="m 14.588895,291.91031 -0.04921,-0.0412 -0.03433,-0.0584 -0.008,-0.0687 0.0206,-0.0595 c 0,0 0.03891,-0.0606 0.04577,-0.0629 0.0069,-0.002 0.06637,-0.0435 0.06637,-0.0435 l 0.07323,-0.024 0.06637,0.0126 c 0,0 0.06065,0.0469 0.06294,0.0515 0.0023,0.005 0.02517,0.0996 0.02517,0.0996 l -0.03319,0.0858 -0.06866,0.0641 -0.05378,0.0401 -0.05493,0.0115 z"
       id="path1446"
       inkscape:connector-curvature="0" />
    <path
       style="fill:none;stroke:#000000;stroke-width:0.2;stroke-linecap:butt;stroke-linejoin:miter;stroke-opacity:1;stroke-miterlimit:4;stroke-dasharray:none"
       d="m 21.576978,289.36151 c 0.402986,-0.43963 0.512893,-0.5129 0.512893,-0.5129 l 0.183177,-0.40298 0.02747,-0.20608 -0.01374,-0.30224 -0.123643,-0.33429 -0.14654,-0.21982 -0.201492,-0.17859 -0.348038,-0.18776 -0.256446,-0.0733 -0.219812,-0.032 -0.402988,-0.0137 -0.531209,0.10074 -0.425885,0.20608 -0.279348,0.28392 -0.119063,0.28851 -0.05038,0.53579 0.08701,0.42588 0.293081,0.32972 0.256449,0.18318 0.329717,0.1099 0.586165,0.14654 z"
       id="path1448"
       inkscape:connector-curvature="0"
       sodipodi:nodetypes="ccccccccccccccccccccccc" />
    <path
       style="fill:none;stroke:#000000;stroke-width:0.2;stroke-linecap:butt;stroke-linejoin:miter;stroke-opacity:1;stroke-miterlimit:4;stroke-dasharray:none"
       d="m 21.062576,288.8802 0.294671,0.12467 0.29305,0.12791 0.348099,0.10362 0.461434,0.14895"
       id="path1450"
       inkscape:connector-curvature="0" />
    <path
       style="fill:none;stroke:#000000;stroke-width:0.2;stroke-linecap:butt;stroke-linejoin:miter;stroke-opacity:1;stroke-miterlimit:4;stroke-dasharray:none"
       d="m 25.029849,287.11302 c 0,0 -0.183173,-0.0916 -0.228969,-0.0916 -0.04579,0 -0.659435,-0.0504 -0.69607,-0.0504 -0.03664,0 -0.508315,0.0366 -0.572427,0.055 -0.06411,0.0183 -0.325138,0.12823 -0.325138,0.12823 l -0.114485,0.18317 c 0,0 -0.03205,0.16486 -0.03205,0.18775 0,0.0229 0.05495,0.17402 0.05495,0.17402 l 0.141962,0.14196 c 0,0 0.192335,0.0916 0.224389,0.0962 0.03206,0.005 0.297662,0.0916 0.297662,0.0916 l 0.46252,0.11906 0.215233,0.0687 0.261027,0.0778 0.261024,0.16029 0.164861,0.20149 c 0,0 0.05495,0.19233 0.05953,0.21065 0.0045,0.0183 -0.02291,0.16486 -0.02291,0.16486 l -0.164858,0.13738 -0.169438,0.0962 -0.183177,0.0687 c 0,0 -0.164858,0.0366 -0.192335,0.0504 -0.02747,0.0137 -0.228972,0.0229 -0.228972,0.0229 l -0.23355,-0.0138 h -0.265605 l -0.288503,-0.0595 -0.338874,-0.0733 -0.119066,-0.0595"
       id="path1452"
       inkscape:connector-curvature="0" />
    <path
       style="fill:none;stroke:#000000;stroke-width:0.2;stroke-linecap:butt;stroke-linejoin:miter;stroke-opacity:1;stroke-miterlimit:4;stroke-dasharray:none"
       d="m 25.982368,288.15712 2.72933,-0.005 -0.03663,-0.2015 -0.09159,-0.30681 -0.123648,-0.26561 -0.137379,-0.12823 -0.16944,-0.0962 c 0,0 -0.187757,-0.0687 -0.206073,-0.0733 -0.0183,-0.005 -0.201495,-0.055 -0.23355,-0.0595 -0.03206,-0.005 -0.23355,-0.0458 -0.256446,-0.0458 -0.0229,0 -0.201496,0 -0.219812,0 -0.01833,0 -0.164861,0.0183 -0.196915,0.0274 -0.03206,0.009 -0.238131,0.0641 -0.261027,0.0733 -0.02291,0.009 -0.238128,0.10074 -0.238128,0.10074 l -0.174018,0.12365 c 0,0 -0.119066,0.14654 -0.128224,0.16486 -0.0092,0.0183 -0.123642,0.21981 -0.123642,0.21981 l -0.06412,0.15112 -0.06411,0.19234 -0.01374,0.26561 0.0229,0.17859 0.09159,0.22439 c 0,0 0.109905,0.1786 0.119063,0.19692 0.0092,0.0183 0.141961,0.13738 0.164861,0.14653 0.02291,0.009 0.23355,0.15113 0.256446,0.16486 0.02291,0.0137 0.242708,0.10533 0.242708,0.10533 0,0 0.361773,0.0687 0.38467,0.0779 0.02291,0.009 0.215234,0.0183 0.251869,0.0183 0.03663,0 0.325138,-0.009 0.375511,-0.0183 0.05037,-0.009 0.201493,-0.0458 0.242708,-0.0458 0.04121,0 0.30682,-0.0778 0.30682,-0.0778 l 0.137384,-0.055"
       id="path1454"
       inkscape:connector-curvature="0" />
    <path
       style="fill:none;stroke:#000000;stroke-width:0.2;stroke-linecap:butt;stroke-linejoin:miter;stroke-opacity:1;stroke-miterlimit:4;stroke-dasharray:none"
       d="m 29.632156,289.37524 v -1.81345 l 0.06869,-0.2427 c 0,0 0.169443,-0.14197 0.196915,-0.14197 0.02748,0 0.283926,-0.0962 0.306821,-0.10532 0.02288,-0.009 0.270185,-0.0321 0.270185,-0.0321 l 0.293085,-0.0183 h 1.094478"
       id="path1458"
       inkscape:connector-curvature="0" />
    <path
       style="fill:none;stroke:#000000;stroke-width:0.2;stroke-linecap:butt;stroke-linejoin:miter;stroke-opacity:1;stroke-miterlimit:4;stroke-dasharray:none"
       d="M 29.632156,288.17086 H 31.83027"
       id="path1460"
       inkscape:connector-curvature="0" />
    <path
       style="fill:none;stroke:#000000;stroke-width:0.2;stroke-linecap:butt;stroke-linejoin:miter;stroke-opacity:1;stroke-miterlimit:4;stroke-dasharray:none"
       d="m 32.324846,287.00769 2.395033,-0.009"
       id="path1462"
       inkscape:connector-curvature="0" />
    <path
       style="fill:none;stroke:#000000;stroke-width:0.2;stroke-linecap:butt;stroke-linejoin:miter;stroke-opacity:1;stroke-miterlimit:4;stroke-dasharray:none"
       d="m 33.524653,286.98937 -0.0092,2.39045"
       id="path1464"
       inkscape:connector-curvature="0" />
    <path
       style="fill:none;stroke:#000000;stroke-width:0.2;stroke-linecap:butt;stroke-linejoin:miter;stroke-opacity:1;stroke-miterlimit:4;stroke-dasharray:none"
       d="m 36.821826,288.28534 c 0.05495,0 1.067006,0 1.067006,0 l 0.02289,0.92046 -0.283927,0.11907 -0.325139,0.0504 -0.270185,0.0366 -0.283921,-0.0229 -0.288503,-0.0366 -0.329716,-0.0504 -0.25645,-0.0962 -0.169437,-0.10991 -0.164855,-0.15569 -0.169443,-0.23813 -0.123643,-0.25645 -0.06411,-0.33888 0.06869,-0.30224 c 0,0 0.109902,-0.27018 0.137379,-0.29308 0.02748,-0.0229 0.297662,-0.24729 0.297662,-0.24729 l 0.384674,-0.18775 0.343452,-0.0779 0.288503,-0.0229 h 0.348039 0.21065 l 0.306821,0.0733 0.29308,0.13739"
       id="path1466"
       inkscape:connector-curvature="0" />
    <path
       style="fill:none;stroke:#000000;stroke-width:0.2;stroke-linecap:butt;stroke-linejoin:miter;stroke-opacity:1;stroke-miterlimit:4;stroke-dasharray:none"
       d="m 38.923774,287.14965 0.238132,-0.087 0.393828,-0.0595 0.348033,-0.0366 0.398411,0.0412 0.256444,0.0321 0.283926,0.11448 0.178597,0.15112 0.08701,0.18776 0.08243,0.2656 v 0.25187 l -0.01829,1.33719"
       id="path1468"
       inkscape:connector-curvature="0" />
    <path
       style="fill:none;stroke:#000000;stroke-width:0.2;stroke-linecap:butt;stroke-linejoin:miter;stroke-opacity:1;stroke-miterlimit:4;stroke-dasharray:none"
       d="m 41.181423,288.95394 -0.21065,0.14653 -0.192337,0.0779 -0.178596,0.087 c 0,0 -0.21065,0.0321 -0.251868,0.0458 -0.04122,0.0137 -0.228973,0.0275 -0.228973,0.0275 l -0.453358,0.0458 -0.297662,-0.0229 -0.261027,-0.0366 -0.238132,-0.11449 -0.105325,-0.1328 -0.08243,-0.17402 v -0.18776 l 0.04582,-0.1786 0.114484,-0.13737 0.242709,-0.10991 0.343457,-0.11449 0.54037,-0.10074 0.439623,-0.0595 0.430464,-0.0137 0.348034,-0.0229"
       id="path1470"
       inkscape:connector-curvature="0" />
    <path
       style="fill:none;stroke:#000000;stroke-width:0.2;stroke-linecap:butt;stroke-linejoin:miter;stroke-opacity:1;stroke-miterlimit:4;stroke-dasharray:none"
       d="m 42.239265,286.99395 -0.0091,2.38129"
       id="path1472"
       inkscape:connector-curvature="0" />
    <path
       style="fill:none;stroke:#000000;stroke-width:0.2;stroke-linecap:butt;stroke-linejoin:miter;stroke-opacity:1;stroke-miterlimit:4;stroke-dasharray:none"
       d="m 42.239265,287.47937 0.224396,-0.18318 c 0,0 0.174014,-0.13738 0.210649,-0.15111 0.03663,-0.0138 0.25645,-0.15113 0.279345,-0.15113 0.02288,0 0.306821,-0.055 0.338874,-0.055 0.03208,0 0.370934,0.0824 0.370934,0.0824 l 0.352615,0.32971 0.01829,0.15113 0.0046,1.8684"
       id="path1474"
       inkscape:connector-curvature="0" />
    <path
       style="fill:none;stroke:#000000;stroke-width:0.2;stroke-linecap:butt;stroke-linejoin:miter;stroke-opacity:1;stroke-miterlimit:4;stroke-dasharray:none"
       d="m 44.034381,287.50227 0.238142,-0.2244 0.302244,-0.18317 0.265603,-0.10533 0.283922,-0.055 0.256449,0.0458 0.251868,0.11906 0.178596,0.22897 0.09159,0.27476 -0.0091,1.76308"
       id="path1476"
       inkscape:connector-curvature="0" />
    <path
       style="fill:none;stroke:#000000;stroke-width:0.2;stroke-linecap:butt;stroke-linejoin:miter;stroke-opacity:1;stroke-miterlimit:4;stroke-dasharray:none"
       d="m 46.814098,288.15254 h 2.674375 l -0.02289,-0.31598 -0.119066,-0.2656 -0.178591,-0.27019 -0.219814,-0.16028 -0.302241,-0.1099 -0.297662,-0.0595 -0.375511,0.009 -0.343451,0.0641 -0.270191,0.1328 -0.261021,0.26103 -0.219814,0.29308 -0.07327,0.25187 -0.0046,0.29308 0.09159,0.41673 0.164855,0.25645 0.183178,0.13737 0.196914,0.13281 0.380093,0.10532 0.361769,0.0641 c 0,0 0.361774,-0.0183 0.389251,-0.0183 0.02748,0 0.361777,-0.0366 0.361777,-0.0366 l 0.421305,-0.12365"
       id="path1478"
       inkscape:connector-curvature="0" />
    <path
       style="fill:none;stroke:#000000;stroke-width:0.2;stroke-linecap:butt;stroke-linejoin:miter;stroke-opacity:1;stroke-miterlimit:4;stroke-dasharray:none"
       d="m 52.281911,287.12218 -0.25645,-0.0778 -0.508307,-0.0824 -0.489999,0.0137 -0.4671,0.0962 -0.169442,0.16486 -0.08243,0.23355 0.02748,0.18775 0.10533,0.0962 0.206068,0.12822 c 0,0 0.242708,0.0962 0.261026,0.10532 0.01829,0.009 0.33888,0.10991 0.33888,0.10991 l 0.325139,0.087 0.338869,0.11449 0.256455,0.12822 c 0,0 0.119061,0.0779 0.137379,0.10532 0.01829,0.0275 0.10533,0.19692 0.10533,0.19692 0,0 0.03663,0.1786 0.03663,0.19691 0,0.0183 -0.04122,0.11907 -0.04122,0.11907 l -0.183173,0.12364 c 0,0 -0.109907,0.0824 -0.128225,0.087 -0.01829,0.005 -0.329721,0.0504 -0.329721,0.0504 l -0.558688,0.0366 -0.430464,0.009 -0.265603,-0.0458 -0.23355,-0.087"
       id="path1480"
       inkscape:connector-curvature="0" />
    <path
       style="fill:none;stroke:#000000;stroke-width:0.2;stroke-linecap:butt;stroke-linejoin:miter;stroke-opacity:1;stroke-miterlimit:4;stroke-dasharray:none"
       d="m 19.186082,292.29643 0.718863,-1.72269 0.741533,1.71945"
       id="path1482"
       inkscape:connector-curvature="0" />
    <path
       style="fill:none;stroke:#000000;stroke-width:0.2;stroke-linecap:butt;stroke-linejoin:miter;stroke-opacity:1;stroke-miterlimit:4;stroke-dasharray:none"
       d="m 19.432179,291.71681 0.968201,0.003"
       id="path1484"
       inkscape:connector-curvature="0" />
    <path
       style="fill:none;stroke:#000000;stroke-width:0.2;stroke-linecap:butt;stroke-linejoin:miter;stroke-opacity:1;stroke-miterlimit:4;stroke-dasharray:none"
       d="m 22.297924,290.56726 0.0032,1.71946 0.751247,0.003"
       id="path1486"
       inkscape:connector-curvature="0" />
    <path
       style="fill:none;stroke:#000000;stroke-width:0.2;stroke-linecap:butt;stroke-linejoin:miter;stroke-opacity:1;stroke-miterlimit:4;stroke-dasharray:none"
       d="m 24.697378,292.29967 -0.0097,-1.74535 0.498673,0.01 0.139239,0.0518 0.110099,0.0648 0.06476,0.0809 0.068,0.11334 0.01296,0.081 0.0065,0.12953 -0.01941,0.1101 -0.04857,0.10686 -0.06476,0.10362 -0.06476,0.0486 -0.07771,0.0421 -0.09715,0.0324 -0.139239,0.0162 -0.385337,-0.01"
       id="path1488"
       inkscape:connector-curvature="0" />
    <path
       style="fill:none;stroke:#000000;stroke-width:0.2;stroke-linecap:butt;stroke-linejoin:miter;stroke-opacity:1;stroke-miterlimit:4;stroke-dasharray:none"
       d="m 27.307311,292.28995 0.01296,-1.72916"
       id="path1490"
       inkscape:connector-curvature="0" />
    <path
       style="fill:none;stroke:#000000;stroke-width:0.2;stroke-linecap:butt;stroke-linejoin:miter;stroke-opacity:1;stroke-miterlimit:4;stroke-dasharray:none"
       d="m 27.32674,291.38004 1.201346,-0.003"
       id="path1492"
       inkscape:connector-curvature="0" />
    <path
       style="fill:none;stroke:#000000;stroke-width:0.2;stroke-linecap:butt;stroke-linejoin:miter;stroke-opacity:1;stroke-miterlimit:4;stroke-dasharray:none"
       d="m 28.544279,292.3029 -0.0031,-1.74858"
       id="path1494"
       inkscape:connector-curvature="0" />
    <path
       style="fill:none;stroke:#000000;stroke-width:0.2;stroke-linecap:butt;stroke-linejoin:miter;stroke-opacity:1;stroke-miterlimit:4;stroke-dasharray:none"
       d="m 30.192484,292.30938 0.73182,-1.73564 0.731819,1.71945"
       id="path1496"
       inkscape:connector-curvature="0" />
    <path
       style="fill:none;stroke:#000000;stroke-width:0.2;stroke-linecap:butt;stroke-linejoin:miter;stroke-opacity:1;stroke-miterlimit:4;stroke-dasharray:none"
       d="m 30.454778,291.72005 0.952006,0.006"
       id="path1498"
       inkscape:connector-curvature="0" />
    <path
       style="fill:none;stroke:#000000;stroke-width:0.2;stroke-linecap:butt;stroke-linejoin:miter;stroke-opacity:1;stroke-miterlimit:4;stroke-dasharray:none"
       d="m 35.188924,290.55432 0.735053,1.73563 0.731819,-1.73563"
       id="path1500"
       inkscape:connector-curvature="0" />
    <path
       style="fill:none;stroke:#000000;stroke-width:0.2;stroke-linecap:butt;stroke-linejoin:miter;stroke-opacity:1;stroke-miterlimit:4;stroke-dasharray:none"
       d="m 39.168587,290.57374 -0.848392,-0.01 -0.01619,1.73564 0.851631,0.003"
       id="path1502"
       inkscape:connector-curvature="0" />
    <path
       style="fill:none;stroke:#000000;stroke-width:0.2;stroke-linecap:butt;stroke-linejoin:miter;stroke-opacity:1;stroke-miterlimit:4;stroke-dasharray:none"
       d="m 38.320195,291.36385 0.806296,0.003"
       id="path1504"
       inkscape:connector-curvature="0" />
    <path
       style="fill:none;stroke:#000000;stroke-width:0.2;stroke-linecap:butt;stroke-linejoin:miter;stroke-opacity:1;stroke-miterlimit:4;stroke-dasharray:none"
       d="m 40.968985,292.30938 0.0031,-1.74535 0.417719,0.01 0.148954,0.0292 0.116573,0.0421 0.09067,0.0777 0.09391,0.11333 0.04209,0.12628 -0.0031,0.21372 -0.04858,0.10686 -0.05829,0.0842 -0.10038,0.0809 -0.12305,0.068 -0.161908,0.006 -0.411242,0.006"
       id="path1506"
       inkscape:connector-curvature="0" />
    <path
       style="fill:none;stroke:#000000;stroke-width:0.2;stroke-linecap:butt;stroke-linejoin:miter;stroke-opacity:1;stroke-miterlimit:4;stroke-dasharray:none"
       d="m 41.299278,291.54842 0.602287,0.75448"
       id="path1508"
       inkscape:connector-curvature="0" />
    <path
       style="fill:none;stroke:#000000;stroke-width:0.2;stroke-linecap:butt;stroke-linejoin:miter;stroke-opacity:1;stroke-miterlimit:4;stroke-dasharray:none"
       d="m 44.420833,290.89432 -0.08419,-0.15219 -0.103618,-0.10686 -0.09067,-0.0648 -0.119817,-0.0195 h -0.119806 l -0.113335,0.0259 -0.110101,0.0712 -0.07771,0.0648 -0.04531,0.0842 -0.01941,0.0939 v 0.10038 l 0.01619,0.0745 0.06152,0.0907 0.07771,0.068 0.129528,0.0615 0.139238,0.0745 0.139238,0.0615 0.126288,0.0874 0.145721,0.16515 0.0356,0.13276 0.0097,0.16838 -0.04531,0.11657 -0.07772,0.1101 -0.119812,0.0648 -0.113334,0.0453 -0.148954,0.003 -0.132761,-0.0421 -0.110095,-0.055 -0.068,-0.0907 -0.07772,-0.0971 -0.09391,-0.18457"
       id="path1510"
       inkscape:connector-curvature="0" />
    <path
       style="fill:none;stroke:#000000;stroke-width:0.2;stroke-linecap:butt;stroke-linejoin:miter;stroke-opacity:1;stroke-miterlimit:4;stroke-dasharray:none"
       d="m 46.166186,290.56079 -0.0031,1.74211"
       id="path1512"
       inkscape:connector-curvature="0" />
    <path
       style="fill:none;stroke:#000000;stroke-width:0.2;stroke-linecap:butt;stroke-linejoin:miter;stroke-opacity:1;stroke-miterlimit:4;stroke-dasharray:none"
       d="m 48.743738,290.55108 -0.136005,-0.006 -0.152187,0.0453 -0.155431,0.0648 -0.08743,0.0518 -0.07771,0.0777 -0.08095,0.0907 -0.07448,0.11658 -0.05828,0.15867 -0.03887,0.18457 0.0065,0.19752 0.03887,0.25582 0.06476,0.11657 0.09066,0.136 0.09715,0.0907 0.110096,0.0745 0.158669,0.068 0.178096,0.0486 0.142482,0.003 0.200763,-0.0453 0.126288,-0.0583 0.106858,-0.0745 0.106857,-0.10038 0.09715,-0.1101 0.06152,-0.0907 0.04209,-0.136 0.02268,-0.14896 0.0097,-0.14894 -0.0031,-0.13601 -0.02917,-0.1101 -0.06476,-0.17161 -0.06476,-0.10686 -0.106863,-0.12306 -0.10038,-0.0712 -0.110096,-0.0712 -0.139238,-0.0421 z"
       id="path1514"
       inkscape:connector-curvature="0" />
    <path
       style="fill:none;stroke:#000000;stroke-width:0.2;stroke-linecap:butt;stroke-linejoin:miter;stroke-opacity:1;stroke-miterlimit:4;stroke-dasharray:none"
       d="m 51.162623,292.29643 -0.0031,-1.71945 1.385918,1.7065 v -1.73564"
       id="path1516"
       inkscape:connector-curvature="0" />
    <path
       style="fill:none;stroke:#000000;stroke-width:0.2;stroke-linecap:butt;stroke-linejoin:miter;stroke-opacity:1;stroke-miterlimit:4;stroke-dasharray:none"
       d="m 12.22177,288.86947 -2.4346687,1.24345 -0.240331,0.28214 -0.0418,0.26123 0.08359,0.19853 0.188086,0.13584 0.4075197,0.0418 1.285254,-0.0418 0.156739,0.16719 0.208984,0.094 0.208984,0.0104 0.26123,-0.0523 0.846388,0.77324 -0.06269,0.21944 -0.03135,0.21943 0.104492,0.19854 0.13584,0.15673 0.07314,0.11495 -0.104492,1.26435 0.09404,0.37618 0.177637,0.22988 0.229883,0.094 0.240333,-0.0209 0.271679,-0.24033 1.222558,-2.27794 -0.0209,-0.41796 -0.114941,-0.36573 -0.219434,-0.29258 -0.188086,-0.13584 -0.250782,-0.0836 -0.334374,-0.0731 -0.929981,-0.96133 -0.06269,-0.41797 -0.188086,-0.29258 -0.344824,-0.30303 -0.386622,-0.10449 z"
       id="path1518"
       inkscape:connector-curvature="0" />
    <path
       style="fill:none;stroke:#000000;stroke-width:0.2;stroke-linecap:butt;stroke-linejoin:miter;stroke-opacity:1;stroke-miterlimit:4;stroke-dasharray:none"
       d="m 57.180816,284.70878 h 6.80086 v 11.1387 l -0.12867,0.25733 -0.16543,0.14704 -0.25732,0.12867 -0.33086,0.0184 -5.18334,0.0184 -0.16543,-0.0551 -0.18381,-0.0735 -0.22057,-0.16543 -0.12866,-0.25733 -0.0735,-0.16542 v -9.09844 l -0.0551,-0.0184 -0.0689,-0.0597 -0.023,-0.84091 0.0482,-0.0804 0.10798,-0.0391 z"
       id="path1520"
       inkscape:connector-curvature="0"
       sodipodi:nodetypes="cccccccccccccccccccc" />
    <path
       style="fill:none;stroke:#000000;stroke-width:0.2;stroke-linecap:butt;stroke-linejoin:miter;stroke-opacity:1;stroke-miterlimit:4;stroke-dasharray:none"
       d="m 60.591106,294.70644 -0.13972,0.013 -0.15596,0.0552 -0.12348,0.0877 -0.11047,0.12672 -0.0747,0.19495 -0.013,0.16572 0.0228,0.13647 0.0747,0.14297 0.0845,0.10397 0.11697,0.078 0.15922,0.078 0.12997,0.013 0.14296,-0.0195 0.14297,-0.039 0.13972,-0.0942 0.11373,-0.12997 0.0552,-0.14622 0.026,-0.17221 -0.013,-0.14946 -0.052,-0.12023 -0.091,-0.12997 -0.11373,-0.091 -0.0942,-0.052 -0.11698,-0.0358 z"
       id="path1522"
       inkscape:connector-curvature="0" />
    <path
       style="fill:none;stroke:#000000;stroke-width:0.2;stroke-linecap:butt;stroke-linejoin:miter;stroke-opacity:1;stroke-miterlimit:4;stroke-dasharray:none"
       d="m 57.179366,284.43873 -0.026,-0.91629 0.052,-0.25345 0.20795,-0.30543 0.38342,-0.20146 0.63036,-0.013 h 4.80892 l 0.27944,0.0585 0.19496,0.13647 0.16897,0.18846 c 0,0 0.0975,0.20146 0.0975,0.22745 0,0.026 0.0195,1.09175 0.0195,1.09175 z"
       id="path1583"
       inkscape:connector-curvature="0" />
    <path
       style="fill:none;stroke:#000000;stroke-width:0.2;stroke-linecap:butt;stroke-linejoin:miter;stroke-opacity:1;stroke-miterlimit:4;stroke-dasharray:none"
       d="m 61.442416,283.74339 -1.71562,0.013 -0.0845,-0.0585 -0.052,-0.091 0.039,-0.10398 0.078,-0.0455 1.74812,-0.006 0.0845,0.0455 0.039,0.078 -0.0195,0.10398 -0.0455,0.0325 z"
       id="path1585"
       inkscape:connector-curvature="0" />
    <path
       style="fill:none;stroke:#000000;stroke-width:0.2;stroke-linecap:butt;stroke-linejoin:miter;stroke-opacity:1;stroke-miterlimit:4;stroke-dasharray:none"
       d="m 60.088656,288.60261 -0.14782,0.12743 -0.0357,0.0918 0.0408,0.0816 0.0867,0.051 h 0.051 l 0.1988,-0.17841 0.13254,0.14783 0.0866,0.0255 0.0765,-0.0306 0.0408,-0.0459 0.0153,-0.10705 -0.18351,-0.17331 0.15803,-0.15292 0.0255,-0.10196 -0.0408,-0.0612 -0.0663,-0.0459 -0.10195,0.0306 -0.14273,0.15292 -0.16312,-0.15292 -0.12234,-0.0204 -0.0867,0.0816 0.0102,0.0918 0.0918,0.11724 z"
       id="path1438-4"
       inkscape:connector-curvature="0"
       sodipodi:nodetypes="ccccccccccccccccccccccccc" />
    <path
       style="fill:none;stroke:#000000;stroke-width:0.2;stroke-linecap:butt;stroke-linejoin:miter;stroke-miterlimit:4;stroke-dasharray:none;stroke-opacity:1"
       d="m 61.400413,289.892 0.0488,0.0133 0.0532,-0.0133 0.0621,-0.0577 0.009,-0.0532 -0.0222,-0.0577 -0.0709,-0.0576 -0.0665,-0.0222 -0.0621,0.0222 -0.0266,0.031 -0.0222,0.0444 0.004,0.0621 0.0266,0.0399 z"
       id="path1440-98"
       inkscape:connector-curvature="0" />
    <path
       style="fill:none;stroke:#000000;stroke-width:0.2;stroke-linecap:butt;stroke-linejoin:miter;stroke-miterlimit:4;stroke-dasharray:none;stroke-opacity:1"
       d="m 61.45857,290.42167 0.0537,-0.0314 0.0448,-0.0448 0.0269,-0.0493 v -0.0493 l -0.0224,-0.0403 -0.0169,-0.0159 -0.023,-0.0206 -0.023,-0.007 -0.0269,-7.3e-4 h -0.0158 l -0.0325,0.007 -0.0238,0.0158 -0.0277,0.0245 -0.0238,0.0277 -0.019,0.0356 -0.009,0.038 0.008,0.0396 0.0253,0.0428 0.0435,0.0206 z"
       id="path1442-1"
       inkscape:connector-curvature="0" />
    <path
       style="fill:none;stroke:#000000;stroke-width:0.2;stroke-linecap:butt;stroke-linejoin:miter;stroke-miterlimit:4;stroke-dasharray:none;stroke-opacity:1"
       d="m 61.932883,290.37944 -0.0328,-0.0328 -0.0283,-0.0306 -0.01,-0.0231 -0.006,-0.0261 0.002,-0.0425 0.0171,-0.0343 0.0254,-0.0283 0.0395,-0.0104 c 0,0 0.0455,-10e-4 0.0485,0 0.003,10e-4 0.0351,0.0217 0.0351,0.0217 l 0.0366,0.0358 0.0246,0.0396 0.007,0.0448 -0.012,0.0343 -0.0254,0.0306 -0.0418,0.0276 -0.0425,10e-4 z"
       id="path1444-37"
       inkscape:connector-curvature="0" />
    <path
       style="fill:none;stroke:#000000;stroke-width:0.2;stroke-linecap:butt;stroke-linejoin:miter;stroke-miterlimit:4;stroke-dasharray:none;stroke-opacity:1"
       d="m 61.898127,289.9175 -0.034,-0.0284 -0.0237,-0.0403 -0.006,-0.0474 0.0142,-0.041 c 0,0 0.0269,-0.0418 0.0316,-0.0434 0.005,-10e-4 0.0458,-0.03 0.0458,-0.03 l 0.0505,-0.0166 0.0458,0.009 c 0,0 0.0418,0.0324 0.0434,0.0355 10e-4,0.003 0.0174,0.0687 0.0174,0.0687 l -0.0229,0.0592 -0.0474,0.0442 -0.0371,0.0276 -0.0379,0.008 z"
       id="path1446-06"
       inkscape:connector-curvature="0" />
    <path
       style="fill:none;stroke:#000000;stroke-width:0.2;stroke-linecap:butt;stroke-linejoin:miter;stroke-opacity:1;stroke-miterlimit:4;stroke-dasharray:none"
       d="m 60.257386,287.84483 -1.67968,0.85787 -0.16581,0.19464 -0.0289,0.18022 0.0577,0.13697 0.12976,0.0937 0.28115,0.0288 0.8867,-0.0288 0.10813,0.11534 0.14418,0.0649 0.14418,0.007 0.18022,-0.0361 0.58392,0.53346 -0.0433,0.15139 -0.0216,0.15139 0.0721,0.13697 0.0937,0.10814 0.0505,0.0793 -0.0721,0.87228 0.0649,0.25953 0.12255,0.15859 0.1586,0.0649 0.1658,-0.0144 0.18744,-0.16581 0.84344,-1.57154 -0.0144,-0.28836 -0.0793,-0.25231 -0.15139,-0.20185 -0.12976,-0.0937 -0.17301,-0.0577 -0.23069,-0.0505 -0.6416,-0.66322 -0.0433,-0.28836 -0.12976,-0.20185 -0.2379,-0.20906 -0.26673,-0.0721 z"
       id="path1518-7"
       inkscape:connector-curvature="0" />
    <g
       id="g894"
       transform="matrix(0.10097462,0,0,0.10097462,16.670533,256.70903)"
       style="stroke-width:1.98069574;stroke-miterlimit:4;stroke-dasharray:none">
      <g
         transform="matrix(0.26458333,0,0,0.26458333,88.662936,246.89696)"
         id="g874"
         style="stroke-width:7.48609422;stroke-miterlimit:4;stroke-dasharray:none">
        <path
           style="fill:none;stroke:#000000;stroke-width:7.48609422;stroke-miterlimit:4;stroke-dasharray:none"
           inkscape:connector-curvature="0"
           class="st14"
           d="m 120,76.1 c 0,-3.1 -0.3,-6.3 -0.8,-9.3 H 75.9 v 17.7 h 24.8 c -1,5.7 -4.3,10.7 -9.2,13.9 l 14.8,11.5 C 115,101.8 120,90 120,76.1 Z"
           id="path866" />
        <path
           style="fill:none;stroke:#000000;stroke-width:7.48609422;stroke-miterlimit:4;stroke-dasharray:none"
           inkscape:connector-curvature="0"
           class="st15"
           d="m 75.9,120.9 c 12.4,0 22.8,-4.1 30.4,-11.1 L 91.5,98.4 c -4.1,2.8 -9.4,4.4 -15.6,4.4 -12,0 -22.1,-8.1 -25.8,-18.9 L 34.9,95.6 c 7.8,15.5 23.6,25.3 41,25.3 z"
           id="path868" />
        <path
           style="fill:none;stroke:#000000;stroke-width:7.48609422;stroke-miterlimit:4;stroke-dasharray:none"
           inkscape:connector-curvature="0"
           class="st12"
           d="m 50.1,83.8 c -1.9,-5.7 -1.9,-11.9 0,-17.6 L 34.9,54.4 c -6.5,13 -6.5,28.3 0,41.2 z"
           id="path870" />
        <path
           style="fill:none;stroke:#000000;stroke-width:7.48609422;stroke-miterlimit:4;stroke-dasharray:none"
           inkscape:connector-curvature="0"
           class="st13"
           d="m 75.9,47.3 c 6.5,-0.1 12.9,2.4 17.6,6.9 L 106.6,41 C 98.3,33.2 87.3,29 75.9,29.1 c -17.4,0 -33.2,9.8 -41,25.3 L 50.1,66.2 C 53.8,55.3 63.9,47.3 75.9,47.3 Z"
           id="path872" />
      </g>
    </g>
    <text
       xml:space="preserve"
       style="font-style:normal;font-weight:normal;font-size:1.79032004px;line-height:1.25;font-family:sans-serif;letter-spacing:0px;word-spacing:0px;fill:#000000;fill-opacity:1;stroke:none;stroke-width:0.2;stroke-miterlimit:4;stroke-dasharray:none"
       x="24.374722"
       y="270.23764"
       id="text898"
       transform="scale(0.91489784,1.0930182)"><tspan
         sodipodi:role="line"
         id="tspan896"
         x="24.374722"
         y="270.23764"
         style="font-style:normal;font-variant:normal;font-weight:normal;font-stretch:normal;font-family:'Starliner BTN';-inkscape-font-specification:'Starliner BTN';letter-spacing:0px;word-spacing:0px;stroke-width:0.2;stroke-miterlimit:4;stroke-dasharray:none"
         dx="0"
         dy="0"
         rotate="0 0 0 0 0 0 0 0 0 0 0 0 0 0 0 0 0 0 0 0">qgames.zyrosite.com</tspan></text>
    <text
       xml:space="preserve"
       style="font-style:normal;font-weight:normal;font-size:1.27352345px;line-height:1.25;font-family:sans-serif;letter-spacing:0px;word-spacing:0px;fill:#000000;fill-opacity:1;stroke:none;stroke-width:0.10580033;stroke-miterlimit:4;stroke-dasharray:none"
       x="32.284714"
       y="259.69699"
       id="text898-4"
       transform="scale(0.91489785,1.0930182)"><tspan
         sodipodi:role="line"
         id="tspan896-1"
         x="32.284714"
         y="259.69699"
         style="font-style:normal;font-variant:normal;font-weight:normal;font-stretch:normal;font-family:'Starliner BTN';-inkscape-font-specification:'Starliner BTN';stroke-width:0.10580033;stroke-miterlimit:4;stroke-dasharray:none">qgames   zyro</tspan></text>
  </g>
  <style
     id="style864"
     type="text/css">
	.st0{fill:#1A73E8;}
	.st1{fill:#EA4335;}
	.st2{fill:#4285F4;}
	.st3{fill:#FBBC04;}
	.st4{fill:#34A853;}
	.st5{fill:#4CAF50;}
	.st6{fill:#1E88E5;}
	.st7{fill:#E53935;}
	.st8{fill:#C62828;}
	.st9{fill:#FBC02D;}
	.st10{fill:#1565C0;}
	.st11{fill:#2E7D32;}
	.st12{fill:#F6B704;}
	.st13{fill:#E54335;}
	.st14{fill:#4280EF;}
	.st15{fill:#34A353;}
	.st16{clip-path:url(#SVGID_2_);}
	.st17{fill:#188038;}
	.st18{opacity:0.2;fill:#FFFFFF;enable-background:new    ;}
	.st19{opacity:0.3;fill:#0D652D;enable-background:new    ;}
	.st20{clip-path:url(#SVGID_4_);}
	.st21{opacity:0.3;fill:url(#_45_shadow_1_);enable-background:new    ;}
	.st22{clip-path:url(#SVGID_6_);}
	.st23{fill:#FA7B17;}
	.st24{opacity:0.3;fill:#174EA6;enable-background:new    ;}
	.st25{opacity:0.3;fill:#A50E0E;enable-background:new    ;}
	.st26{opacity:0.3;fill:#E37400;enable-background:new    ;}
	.st27{fill:url(#Finish_mask_1_);}
	.st28{fill:#FFFFFF;}
	.st29{fill:#0C9D58;}
	.st30{opacity:0.2;fill:#004D40;enable-background:new    ;}
	.st31{opacity:0.2;fill:#3E2723;enable-background:new    ;}
	.st32{fill:#FFC107;}
	.st33{opacity:0.2;fill:#1A237E;enable-background:new    ;}
	.st34{opacity:0.2;}
	.st35{fill:#1A237E;}
	.st36{fill:url(#SVGID_7_);}
	.st37{fill:#FBBC05;}
	.st38{clip-path:url(#SVGID_9_);fill:#E53935;}
	.st39{clip-path:url(#SVGID_11_);fill:#FBC02D;}
	.st40{clip-path:url(#SVGID_13_);fill:#E53935;}
	.st41{clip-path:url(#SVGID_15_);fill:#FBC02D;}
</style>
</svg>
